<svg xmlns="http://www.w3.org/2000/svg" fill="none" viewBox="0 0 28 28"><g clip-path="url(#a)"><path fill="#d30000" d="M14 2.334A11.656 11.656 0 0 0 2.333 14.001 11.656 11.656 0 0 0 14 25.667a11.656 11.656 0 0 0 11.666-11.666A11.656 11.656 0 0 0 14 2.334m5.126 15.148a1 1 0 0 1 0 1.414l-.23.23a1 1 0 0 1-1.415 0L14 15.647l-3.482 3.48a1 1 0 0 1-1.414 0l-.21-.21a1 1 0 0 1 .02-1.433L12.6 14l-3.686-3.482a1 1 0 0 1-.02-1.434l.21-.21a1 1 0 0 1 1.414 0L14 12.354l3.48-3.48a1 1 0 0 1 1.415 0l.23.23a1 1 0 0 1 0 1.414L15.645 14z"/></g><defs><clipPath id="a"><rect width="28" height="28" fill="#fff" rx="4"/></clipPath></defs></svg>