<svg xmlns="http://www.w3.org/2000/svg" fill="none" viewBox="0 0 28 28"><g clip-path="url(#a)"><path fill="#44bb28" d="M14 2.334c-6.44 0-11.667 5.227-11.667 11.667S7.56 25.667 14 25.667s11.666-5.226 11.666-11.666S20.44 2.334 14 2.334m-1.627 16.793a1 1 0 0 1-1.414 0l-4.419-4.42a1 1 0 0 1 0-1.414l.232-.231a1 1 0 0 1 1.413-.001l2.774 2.766a1 1 0 0 0 1.414 0l7.439-7.44a1 1 0 0 1 1.416.002l.236.238a1 1 0 0 1-.002 1.412z"/></g><defs><clipPath id="a"><path fill="#fff" d="M0 0h28v28H0z"/></clipPath></defs></svg>