<svg width="28" height="28" viewBox="0 0 28 28" fill="none" xmlns="http://www.w3.org/2000/svg">
<g clip-path="url(#clip0_127_23233)">
<path d="M13.9997 2.33398C7.55967 2.33398 2.33301 7.56065 2.33301 14.0007C2.33301 20.4407 7.55967 25.6673 13.9997 25.6673C20.4397 25.6673 25.6663 20.4407 25.6663 14.0007C25.6663 7.56065 20.4397 2.33398 13.9997 2.33398ZM12.3734 19.1269C11.9829 19.5174 11.3498 19.5174 10.9592 19.1269L6.54011 14.7078C6.14959 14.3172 6.14959 13.6841 6.54011 13.2935L6.77189 13.0618C7.16203 12.6716 7.79443 12.6712 8.18511 13.0608L10.9592 15.8272C11.3499 16.2168 11.9823 16.2163 12.3725 15.8262L19.8117 8.38693C20.2032 7.99543 20.8383 7.99655 21.2284 8.38943L21.4642 8.62689C21.8524 9.01781 21.8513 9.64905 21.4617 10.0386L12.3734 19.1269Z" fill="#44BB28"/>
</g>
<defs>
<clipPath id="clip0_127_23233">
<rect width="28" height="28" fill="white"/>
</clipPath>
</defs>
</svg>
