<svg width="20" height="20" viewBox="0 0 20 20" fill="none" xmlns="http://www.w3.org/2000/svg">
<path d="M13.536 12.3573L13.5935 12.4206C13.8603 12.7479 13.841 13.2308 13.536 13.5358C13.2309 13.8409 12.7481 13.8602 12.4207 13.5934L12.3574 13.5358L6.46489 7.64329C6.13945 7.31786 6.13945 6.79022 6.46489 6.46478C6.79033 6.13934 7.31797 6.13934 7.6434 6.46478L13.536 12.3573Z" fill="currentColor"/>
<path d="M7.6434 13.5358L7.5801 13.5934C7.25279 13.8602 6.76993 13.8409 6.46489 13.5358C6.15985 13.2308 6.14053 12.7479 6.40735 12.4206L6.46489 12.3573L12.3574 6.46478C12.6829 6.13934 13.2105 6.13934 13.536 6.46478C13.8614 6.79022 13.8614 7.31786 13.536 7.64329L7.6434 13.5358Z" fill="currentColor"/>
</svg>
