<svg xmlns="http://www.w3.org/2000/svg" fill="none" viewBox="0 0 24 24"><path fill="currentColor" d="M17.136 16.383 14.753 14q.185-.296.286-.693.102-.398.102-.803 0-1.312-.915-2.227T12 9.363q-.407 0-.794.092-.39.092-.702.296L8.47 7.7q.646-.296 1.654-.518a9 9 0 0 1 1.967-.221q2.495 0 4.6 1.367 2.108 1.367 3.216 3.677a.6.6 0 0 1 .073.221q.02.13.019.277 0 .148-.018.287a.6.6 0 0 1-.074.23q-.48 1.017-1.183 1.867a8.7 8.7 0 0 1-1.589 1.496m.665 3.77-2.697-2.643a7.2 7.2 0 0 1-1.46.398 10 10 0 0 1-1.644.138q-2.55 0-4.674-1.367a8.8 8.8 0 0 1-3.234-3.677.8.8 0 0 1-.074-.23 1.8 1.8 0 0 1 .01-.555q.027-.139.064-.23a8.8 8.8 0 0 1 .989-1.617q.6-.786 1.413-1.488l-1.94-1.94a.53.53 0 0 1-.166-.388q0-.222.166-.388A.54.54 0 0 1 4.951 6q.231 0 .398.166l13.228 13.229a.5.5 0 0 1 .148.36q0 .213-.148.379a.46.46 0 0 1-.378.185.54.54 0 0 1-.398-.167M12 15.643q.258 0 .554-.046t.5-.138l-4.01-4.01a2.3 2.3 0 0 0-.139.5q-.045.276-.046.554 0 1.33.924 2.235a3.06 3.06 0 0 0 2.217.905m1.94-2.457-2.624-2.623q1.146-.426 2.125.443t.499 2.18"/></svg>