<svg xmlns="http://www.w3.org/2000/svg" fill="none" viewBox="0 0 24 24"><path fill="#707177" d="M2 17.378V6.755c0-1.113.714-2.226 1.836-2.63L8.94 2.202c.306-.1.612-.202 1.02-.202.51 0 1.122.202 1.633.506.204.202.51.405.612.607h3.877c1.53 0 2.858 1.214 2.858 2.833v1.011c0 .405-.307.81-.817.81s-.816-.304-.816-.81V5.946c0-.709-.612-1.214-1.225-1.214h-3.367V19.3h3.367c.715 0 1.225-.506 1.225-1.214v-1.012c0-.404.306-.81.816-.81s.817.406.817.81v1.012a2.84 2.84 0 0 1-2.858 2.833h-3.877l-.613.607c-.816.506-1.734.607-2.652.303l-5.103-1.922C2.816 19.604 2 18.491 2 17.377"/><path fill="#707177" d="M19.143 9.183c.204 0 .408.101.51.202l2.04 2.024c.103.1.103.202.205.202 0 .101.102.202.102.303 0 .102 0 .203-.102.304 0 .101-.102.202-.204.202l-2.04 2.024a.806.806 0 0 1-1.123 0 .79.79 0 0 1 0-1.113l.714-.708H15.06c-.408 0-.816-.304-.816-.81s.408-.607.816-.607h4.286l-.714-.708a.79.79 0 0 1 0-1.113.78.78 0 0 1 .51-.202"/></svg>