<svg width="28" height="28" viewBox="0 0 28 28" fill="none" xmlns="http://www.w3.org/2000/svg">
<g clip-path="url(#clip0_127_23212)">
<path d="M13.9997 2.33398C7.55967 2.33398 2.33301 7.56065 2.33301 14.0007C2.33301 20.4407 7.55967 25.6673 13.9997 25.6673C20.4397 25.6673 25.6663 20.4407 25.6663 14.0007C25.6663 7.56065 20.4397 2.33398 13.9997 2.33398ZM15.1663 18.6673C15.1663 19.3117 14.644 19.834 13.9997 19.834C13.3553 19.834 12.833 19.3117 12.833 18.6673V14.0007C12.833 13.3563 13.3553 12.834 13.9997 12.834C14.644 12.834 15.1663 13.3563 15.1663 14.0007V18.6673ZM15.1663 9.33398C15.1663 9.97832 14.644 10.5007 13.9997 10.5007C13.3553 10.5007 12.833 9.97832 12.833 9.33398C12.833 8.68965 13.3553 8.16732 13.9997 8.16732C14.644 8.16732 15.1663 8.68965 15.1663 9.33398Z" fill="#2B42D6"/>
</g>
<defs>
<clipPath id="clip0_127_23212">
<rect width="28" height="28" fill="white"/>
</clipPath>
</defs>
</svg>
