<svg width="40" height="40" viewBox="0 0 40 40" fill="none" xmlns="http://www.w3.org/2000/svg">
<path d="M0 0H34C37.3137 0 40 2.68629 40 6V34C40 37.3137 37.3137 40 34 40H0V0Z" fill="white"/>
<path d="M20.833 14.1668C20.833 13.7066 20.4599 13.3335 19.9997 13.3335C19.5394 13.3335 19.1663 13.7066 19.1663 14.1668V19.1668H14.1663C13.7061 19.1668 13.333 19.5399 13.333 20.0002C13.333 20.4604 13.7061 20.8335 14.1663 20.8335H19.1663V25.8335C19.1663 26.2937 19.5394 26.6668 19.9997 26.6668C20.4599 26.6668 20.833 26.2937 20.833 25.8335V20.8335H25.833C26.2932 20.8335 26.6663 20.4604 26.6663 20.0002C26.6663 19.5399 26.2932 19.1668 25.833 19.1668H20.833V14.1668Z" fill="#49494C"/>
</svg>
