<svg xmlns="http://www.w3.org/2000/svg" fill="none" viewBox="0 0 120 120"><path fill="#587aff" d="M42.833 99.651c6.276 0 11.363-5.087 11.363-11.363S49.11 76.924 42.833 76.924 31.469 82.01 31.469 88.288c0 6.276 5.087 11.363 11.364 11.363m31.469 0c6.276 0 11.364-5.087 11.364-11.363s-5.088-11.364-11.364-11.364-11.364 5.087-11.364 11.364c0 6.276 5.088 11.363 11.364 11.363"/><path fill="#587aff" fill-rule="evenodd" d="M86.451 23.882a5.68 5.68 0 0 1 5.177-3.34h12.175a5.682 5.682 0 0 1 0 11.364h-8.51l-6.2 13.706a5.682 5.682 0 0 1-10.353-4.684z" clip-rule="evenodd"/><foreignObject width="107.307" height="76.428" x="5.35" y="23.412"><div xmlns="http://www.w3.org/1999/xhtml" style="backdrop-filter:blur(6.63px);clip-path:url(#a);height:100%;width:100%"/></foreignObject><path fill="#587aff" fill-opacity=".6" stroke="url(#b)" stroke-width=".612" d="M37.846 36.976h42.316c5.09 0 8.88 0 11.717.412 2.83.41 4.662 1.223 5.881 2.805s1.54 3.559 1.216 6.401c-.325 2.85-1.288 6.514-2.584 11.437l-4.14 15.734c-.806 3.06-1.404 5.333-2.087 7.064-.68 1.724-1.432 2.883-2.53 3.73-1.099.846-2.412 1.28-4.252 1.498-1.847.22-4.198.22-7.362.22H41.987c-3.165 0-5.515 0-7.362-.22-1.84-.219-3.153-.652-4.252-1.498-1.098-.847-1.851-2.006-2.531-3.73-.682-1.731-1.281-4.004-2.087-7.064l-4.14-15.734c-1.295-4.923-2.26-8.588-2.584-11.437-.323-2.842-.003-4.82 1.216-6.4 1.22-1.583 3.05-2.395 5.881-2.806 2.838-.411 6.627-.412 11.718-.412Z" data-figma-bg-blur-radius="13.258"/><defs><linearGradient id="b" x1="57.693" x2="107.223" y1="36.714" y2="81" gradientUnits="userSpaceOnUse"><stop stop-color="#fff"/><stop offset="1" stop-color="#fff" stop-opacity="0"/></linearGradient><clipPath id="a" transform="translate(-5.35 -23.412)"><path d="M37.846 36.976h42.316c5.09 0 8.88 0 11.717.412 2.83.41 4.662 1.223 5.881 2.805s1.54 3.559 1.216 6.401c-.325 2.85-1.288 6.514-2.584 11.437l-4.14 15.734c-.806 3.06-1.404 5.333-2.087 7.064-.68 1.724-1.432 2.883-2.53 3.73-1.099.846-2.412 1.28-4.252 1.498-1.847.22-4.198.22-7.362.22H41.987c-3.165 0-5.515 0-7.362-.22-1.84-.219-3.153-.652-4.252-1.498-1.098-.847-1.851-2.006-2.531-3.73-.682-1.731-1.281-4.004-2.087-7.064l-4.14-15.734c-1.295-4.923-2.26-8.588-2.584-11.437-.323-2.842-.003-4.82 1.216-6.4 1.22-1.583 3.05-2.395 5.881-2.806 2.838-.411 6.627-.412 11.718-.412"/></clipPath></defs></svg>