<svg viewBox="0 0 118 28" fill="none" xmlns="http://www.w3.org/2000/svg">
<g clip-path="url(#clip0_442_9684)">
<path d="M1.50293 21.1746C40.2185 25.6181 125.409 31.3706 111.622 14.7422" stroke="white" stroke-width="4" stroke-linecap="round"/>
<path d="M114.377 1.24014C116.245 1.92488 117.209 4.00447 116.529 5.88552C116.199 6.79806 115.542 7.49503 114.741 7.89385L111.147 9.91848L109.842 6.0845C109.489 5.26426 109.435 4.31206 109.763 3.40594C110.443 1.52496 112.509 0.555474 114.377 1.24014Z" fill="white"/>
<path d="M112.536 6.37011C113.473 6.71365 114.51 6.22699 114.851 5.28313C115.192 4.33928 114.709 3.29564 113.772 2.9521C112.834 2.60857 111.798 3.09523 111.456 4.03908C111.115 4.98294 111.599 6.02657 112.536 6.37011Z" fill="#6AABD5"/>
<path d="M8.22586 17.2239C7.39811 17.2239 6.71766 17.1674 6.18454 17.0544C5.65141 16.9555 5.2235 16.8072 4.90082 16.6095C4.59216 16.3976 4.3747 16.1362 4.24843 15.8255C4.1362 15.5147 4.08008 15.1474 4.08008 14.7236C4.08008 14.5965 4.08709 14.4199 4.10112 14.1939C4.11515 13.9537 4.1362 13.6218 4.16426 13.198C4.19231 12.7742 4.22739 12.2303 4.26948 11.5664C4.3256 10.8884 4.39575 10.0408 4.47993 9.02373C4.57814 7.76645 4.65529 6.77059 4.71142 6.03603C4.76754 5.30147 4.80963 4.73642 4.83768 4.3409C4.86574 3.93123 4.87977 3.64871 4.87977 3.49333C4.8938 3.32382 4.90082 3.18255 4.90082 3.06954C4.90082 2.84352 4.90082 2.65988 4.90082 2.51863C4.91485 2.37736 4.92887 2.27142 4.94291 2.20079C4.97096 2.11603 5.00604 2.05952 5.04813 2.03127C5.10425 1.9889 5.18141 1.96771 5.27962 1.96771C6.10737 1.9112 6.80886 1.86882 7.38408 1.84057C7.97333 1.81231 8.48539 1.79819 8.92033 1.79819C9.98662 1.79819 10.8985 1.89001 11.6561 2.07365C12.4278 2.24317 13.0521 2.49037 13.5291 2.81527C14.0061 3.14017 14.3568 3.54277 14.5813 4.02306C14.8058 4.50334 14.918 5.0472 14.918 5.65463C14.918 5.99365 14.8829 6.3468 14.8128 6.71409C14.7427 7.06723 14.6234 7.40626 14.4551 7.73119C14.2867 8.05607 14.0552 8.34568 13.7606 8.59995C13.48 8.84006 13.1223 9.01662 12.6873 9.12968C13.5011 9.38395 14.0763 9.80773 14.413 10.401C14.7497 10.9802 14.918 11.6724 14.918 12.4776C14.918 13.1273 14.8128 13.7418 14.6024 14.321C14.3919 14.886 14.0272 15.3875 13.5081 15.8255C12.9889 16.2492 12.3015 16.5883 11.4457 16.8425C10.5898 17.0968 9.51657 17.2239 8.22586 17.2239ZM9.4254 10.6553C9.2711 10.6553 9.0817 10.6694 8.8572 10.6977C8.6327 10.7118 8.40121 10.7401 8.16273 10.7824L7.93124 14.2363C8.43631 14.3916 8.8923 14.4694 9.29914 14.4694C9.73408 14.4694 10.0848 14.4058 10.3514 14.2786C10.618 14.1515 10.8213 13.9961 10.9617 13.8125C11.116 13.6147 11.2142 13.4028 11.2563 13.1768C11.3124 12.9366 11.3405 12.7177 11.3405 12.5199C11.3405 11.9973 11.1931 11.5593 10.8985 11.2062C10.618 10.8389 10.1269 10.6553 9.4254 10.6553ZM8.54153 4.82825C8.5135 5.19552 8.48539 5.62637 8.45735 6.12079C8.4433 6.6152 8.41526 7.15199 8.37317 7.73119C8.8221 7.84417 9.22195 7.9007 9.57271 7.9007C9.99361 7.9007 10.3303 7.85121 10.5829 7.75238C10.8354 7.65347 11.0318 7.52634 11.1721 7.37095C11.3264 7.21556 11.4246 7.04604 11.4667 6.86241C11.5229 6.67877 11.5509 6.50219 11.5509 6.33268C11.5509 5.89477 11.4036 5.52042 11.109 5.20965C10.8284 4.88475 10.3373 4.7223 9.63585 4.7223C9.48155 4.7223 9.30613 4.73642 9.10973 4.76468C8.92732 4.7788 8.73792 4.79999 8.54153 4.82825ZM20.6941 17.2239C19.7261 17.2239 18.9194 17.0897 18.274 16.8214C17.6426 16.5388 17.1376 16.1574 16.7588 15.6771C16.38 15.1968 16.1134 14.6389 15.9591 14.0032C15.8048 13.3534 15.7276 12.6612 15.7276 11.9266C15.7276 11.0791 15.8258 10.2527 16.0222 9.44751C16.2327 8.62817 16.5834 7.9007 17.0744 7.265C17.5655 6.62933 18.2108 6.12079 19.0105 5.73938C19.8243 5.34385 20.8344 5.14609 22.041 5.14609C23.8087 5.14609 25.0714 5.584 25.829 6.45982C26.6006 7.32151 26.9864 8.53638 26.9864 10.1044C26.9864 10.5422 26.9514 11.0296 26.8812 11.5664C26.8251 12.089 26.7059 12.6117 26.5235 13.1344C26.3551 13.657 26.1166 14.1656 25.8079 14.6601C25.5133 15.1544 25.1345 15.5924 24.6715 15.9738C24.2085 16.3552 23.6474 16.6589 22.988 16.8849C22.3426 17.1109 21.578 17.2239 20.6941 17.2239ZM21.6832 7.96427C21.1501 7.96427 20.7222 8.10548 20.3995 8.38805C20.0909 8.6564 19.8523 8.98839 19.684 9.38395C19.5297 9.76535 19.4244 10.175 19.3683 10.6129C19.3262 11.0367 19.3052 11.3969 19.3052 11.6936C19.3052 12.6259 19.4525 13.311 19.7471 13.7489C20.0417 14.1868 20.4626 14.4058 21.0098 14.4058C21.5009 14.4058 21.9007 14.2503 22.2093 13.9396C22.532 13.6288 22.7775 13.2545 22.9459 12.8166C23.1283 12.3787 23.2476 11.9195 23.3036 11.4393C23.3738 10.959 23.4089 10.5564 23.4089 10.2315C23.4089 9.52516 23.2756 8.97424 23.009 8.57876C22.7565 8.16905 22.3145 7.96427 21.6832 7.96427ZM32.6402 17.2239C31.6722 17.2239 30.8655 17.0897 30.2201 16.8214C29.5887 16.5388 29.0837 16.1574 28.7049 15.6771C28.3261 15.1968 28.0595 14.6389 27.9052 14.0032C27.7509 13.3534 27.6737 12.6612 27.6737 11.9266C27.6737 11.0791 27.7719 10.2527 27.9683 9.44751C28.1788 8.62817 28.5295 7.9007 29.0205 7.265C29.5116 6.62933 30.1569 6.12079 30.9566 5.73938C31.7704 5.34385 32.7805 5.14609 33.9871 5.14609C35.7548 5.14609 37.0175 5.584 37.7751 6.45982C38.5467 7.32151 38.9325 8.53638 38.9325 10.1044C38.9325 10.5422 38.8974 11.0296 38.8273 11.5664C38.7712 12.089 38.652 12.6117 38.4696 13.1344C38.3012 13.657 38.0627 14.1656 37.754 14.6601C37.4594 15.1544 37.0806 15.5924 36.6176 15.9738C36.1547 16.3552 35.5934 16.6589 34.9341 16.8849C34.2887 17.1109 33.5241 17.2239 32.6402 17.2239ZM33.6293 7.96427C33.0962 7.96427 32.6682 8.10548 32.3456 8.38805C32.0369 8.6564 31.7984 8.98839 31.6301 9.38395C31.4758 9.76535 31.3705 10.175 31.3144 10.6129C31.2723 11.0367 31.2513 11.3969 31.2513 11.6936C31.2513 12.6259 31.3986 13.311 31.6932 13.7489C31.9878 14.1868 32.4087 14.4058 32.9559 14.4058C33.4469 14.4058 33.8467 14.2503 34.1554 13.9396C34.4781 13.6288 34.7236 13.2545 34.892 12.8166C35.0744 12.3787 35.1936 11.9195 35.2497 11.4393C35.3199 10.959 35.355 10.5564 35.355 10.2315C35.355 9.52516 35.2217 8.97424 34.9551 8.57876C34.7026 8.16905 34.2606 7.96427 33.6293 7.96427ZM49.8685 15.2957C49.8685 15.3663 49.8334 15.5076 49.7633 15.7195C49.6931 15.9314 49.5809 16.1503 49.4266 16.3764C49.2722 16.6023 49.0758 16.8002 48.8373 16.9697C48.6128 17.1392 48.3392 17.2239 48.0166 17.2239C47.6378 17.2239 47.259 17.0968 46.8802 16.8425C46.5154 16.5883 46.1506 16.2421 45.7859 15.8043C45.421 15.3663 45.0493 14.8508 44.6705 14.2575C44.3057 13.65 43.9339 12.9931 43.5551 12.2869C43.499 13.0355 43.4428 13.7701 43.3868 14.4905C43.3306 15.211 43.2745 15.9102 43.2184 16.5883C43.2044 16.7578 43.1693 16.8708 43.1132 16.9273C43.0571 16.9838 42.9378 17.0121 42.7554 17.0121H41.9978C41.5629 17.0121 41.2051 16.9697 40.9246 16.8849C40.6439 16.786 40.4265 16.6518 40.2722 16.4823C40.1178 16.3128 40.0056 16.1009 39.9355 15.8467C39.8793 15.5782 39.8513 15.2745 39.8513 14.9355C39.8513 14.766 39.8583 14.5894 39.8723 14.4058C39.8863 14.2221 39.9074 13.9608 39.9355 13.6218C39.9635 13.2828 39.9986 12.8378 40.0407 12.2869C40.0968 11.7359 40.1599 11.0084 40.2301 10.1044C40.3002 9.20028 40.3774 8.09141 40.4616 6.77765C40.5597 5.44979 40.665 3.83942 40.7772 1.94652C40.7912 1.63574 40.8263 1.4521 40.8825 1.3956C40.9246 1.35322 41.0368 1.33203 41.2192 1.33203H42.0399C42.4748 1.33203 42.8326 1.38147 43.1132 1.48036C43.3938 1.57923 43.6183 1.71344 43.7866 1.88295C43.955 2.05246 44.0672 2.25023 44.1233 2.47625C44.1935 2.70226 44.2286 2.93534 44.2286 3.17549C44.2286 3.31675 44.2145 3.5569 44.1865 3.89592C44.1724 4.22082 44.1514 4.62342 44.1233 5.10371C44.0952 5.56987 44.0531 6.0996 43.9971 6.6929C43.955 7.28619 43.9129 7.90774 43.8708 8.55757L47.2379 5.46392C47.3642 5.35091 47.4764 5.27322 47.5746 5.23084C47.6869 5.18846 47.771 5.16727 47.8272 5.16727C47.9815 5.16727 48.1498 5.26615 48.3323 5.46392C48.5146 5.66169 48.6829 5.89477 48.8373 6.16317C49.0057 6.41744 49.1389 6.68583 49.2372 6.96836C49.3494 7.23675 49.4055 7.45571 49.4055 7.62524C49.4055 8.03488 49.0758 8.4657 48.4164 8.91778C47.771 9.36979 46.7889 9.87833 45.4702 10.4434C46.0594 11.1073 46.6206 11.7148 47.1538 12.2657C47.6869 12.8166 48.1498 13.3039 48.5427 13.7277C48.9495 14.1515 49.2722 14.4976 49.5108 14.766C49.7492 15.0343 49.8685 15.211 49.8685 15.2957ZM55.4887 5.14609C56.6812 5.14609 57.5581 5.38623 58.1193 5.86652C58.6805 6.33268 58.961 6.93304 58.961 7.66762C58.961 8.28915 58.7647 8.76235 58.3718 9.0873C57.993 9.41217 57.4388 9.57465 56.7093 9.57465C56.5129 9.57465 56.3796 9.55346 56.3094 9.51108C56.2393 9.4687 56.2042 9.39098 56.2042 9.278C56.2042 9.15086 56.1902 9.00958 56.1621 8.85422C56.1481 8.6847 56.099 8.52926 56.0148 8.38805C55.9447 8.23262 55.8254 8.10548 55.657 8.00665C55.5027 7.90774 55.2782 7.85832 54.9836 7.85832C54.5908 7.85832 54.2752 7.95716 54.0366 8.15497C53.7981 8.33856 53.6789 8.57164 53.6789 8.85422C53.6789 9.15086 53.7981 9.39098 54.0366 9.57465C54.2892 9.74416 54.5978 9.90656 54.9626 10.062C55.3414 10.2174 55.7483 10.3798 56.1832 10.5494C56.6181 10.7047 57.018 10.9166 57.3827 11.185C57.7615 11.4534 58.0702 11.7924 58.3087 12.2021C58.5612 12.5976 58.6875 13.1132 58.6875 13.7489C58.6875 14.766 58.3297 15.5994 57.6142 16.2492C56.8987 16.899 55.8254 17.2239 54.3944 17.2239C54.0016 17.2239 53.5456 17.1886 53.0265 17.118C52.5214 17.0615 52.0374 16.9697 51.5744 16.8425C51.1114 16.7013 50.7186 16.5176 50.3959 16.2916C50.0873 16.0656 49.9329 15.7831 49.9329 15.4441C49.9329 15.3169 49.954 15.1615 49.9961 14.9779C50.0522 14.7942 50.1294 14.6177 50.2275 14.4482C50.3398 14.2787 50.4661 14.1374 50.6063 14.0244C50.7607 13.8972 50.9431 13.8337 51.1535 13.8337C51.3219 13.8337 51.4762 13.8761 51.6165 13.9608C51.7568 14.0456 51.9182 14.1374 52.1005 14.2363C52.297 14.321 52.5355 14.4058 52.816 14.4905C53.0967 14.5753 53.4684 14.6177 53.9314 14.6177C54.2822 14.6177 54.5908 14.5753 54.8574 14.4905C55.138 14.4058 55.2782 14.2151 55.2782 13.9184C55.2782 13.65 55.166 13.4381 54.9415 13.2828C54.7171 13.1132 54.4295 12.9578 54.0787 12.8166C53.742 12.6753 53.3703 12.527 52.9633 12.3716C52.5706 12.2021 52.1987 11.9831 51.848 11.7148C51.5113 11.4463 51.2307 11.1073 51.0062 10.6977C50.7818 10.2739 50.6695 9.73001 50.6695 9.06611C50.6695 8.34568 50.8098 7.73823 51.0904 7.24381C51.385 6.73527 51.7568 6.32561 52.2057 6.01484C52.6687 5.70406 53.1878 5.48511 53.763 5.35798C54.3383 5.21671 54.9135 5.14609 55.4887 5.14609ZM65.1424 14.4058C65.5493 14.4058 65.9 14.3493 66.1947 14.2363C66.5033 14.1232 66.7699 13.9961 66.9944 13.8549C67.2188 13.7136 67.4082 13.5864 67.5626 13.4735C67.7169 13.3604 67.8572 13.3039 67.9835 13.3039C68.3061 13.3039 68.4675 13.5158 68.4675 13.9396C68.4675 14.0385 68.4464 14.1797 68.4044 14.3634C68.3623 14.5329 68.3061 14.7165 68.236 14.9143C68.1658 15.0979 68.0887 15.2745 68.0045 15.4441C67.9343 15.6136 67.8642 15.7407 67.7941 15.8255C67.7239 15.8961 67.5976 16.009 67.4153 16.1645C67.2469 16.3198 67.0154 16.4752 66.7208 16.6306C66.4262 16.786 66.0824 16.9202 65.6896 17.0332C65.2967 17.1604 64.8618 17.2239 64.3848 17.2239C63.8517 17.2239 63.2975 17.1462 62.7223 16.9909C62.1611 16.8214 61.649 16.5388 61.1861 16.1433C60.7231 15.7336 60.3372 15.1898 60.0286 14.5117C59.734 13.8195 59.5867 12.9578 59.5867 11.9266C59.5867 11.5593 59.6077 11.1426 59.6498 10.6765C59.7059 10.1962 59.8111 9.70882 59.9655 9.21443C60.1198 8.70589 60.3232 8.21143 60.5758 7.73119C60.8423 7.23675 61.1931 6.79884 61.628 6.41744C62.0629 6.03603 62.582 5.73232 63.1853 5.5063C63.8026 5.26615 64.5322 5.14609 65.3739 5.14609C66.0613 5.14609 66.6506 5.23084 67.1417 5.40036C67.6468 5.55574 68.0606 5.7747 68.3833 6.05722C68.706 6.32561 68.9445 6.64345 69.0988 7.01073C69.2672 7.37801 69.3514 7.77357 69.3514 8.19735C69.3514 8.96016 69.1128 9.52516 68.6358 9.89249C68.1588 10.2456 67.4854 10.4222 66.6156 10.4222C66.4051 10.4222 66.2578 10.4081 66.1736 10.3798C66.1034 10.3375 66.0684 10.2527 66.0684 10.1256C66.0684 9.78654 66.0613 9.48278 66.0474 9.21443C66.0333 8.94601 65.9912 8.71997 65.9211 8.53638C65.865 8.35271 65.7738 8.21143 65.6475 8.11259C65.5212 8.01369 65.3388 7.96427 65.1004 7.96427C64.6654 7.96427 64.3146 8.10548 64.0481 8.38805C63.7956 8.67055 63.5991 9.01662 63.4589 9.42632C63.3326 9.82181 63.2484 10.2315 63.2063 10.6553C63.1782 11.0791 63.1643 11.4322 63.1643 11.7148C63.1643 12.7177 63.3186 13.4169 63.6272 13.8125C63.9499 14.208 64.455 14.4058 65.1424 14.4058ZM69.2632 14.4058C69.2632 13.1344 69.8314 12.1385 70.9678 11.4181C72.1042 10.6977 73.7808 10.3092 75.9977 10.2527C76.0112 10.0973 76.0187 9.97013 76.0187 9.8713C76.0323 9.75824 76.0398 9.62406 76.0398 9.4687C76.0398 9.01662 75.9556 8.6564 75.7872 8.38805C75.6189 8.11963 75.2679 7.98546 74.7348 7.98546C74.4402 7.98546 74.2017 8.02784 74.0193 8.11259C73.8369 8.19735 73.6896 8.31737 73.5773 8.47281C73.4651 8.61402 73.374 8.79065 73.3038 9.00254C73.2336 9.21443 73.1705 9.44751 73.1144 9.70178C73.0863 9.82892 73.0232 9.91368 72.925 9.95605C72.8268 9.98428 72.6724 9.99843 72.462 9.99843C71.0309 9.99843 70.3154 9.45455 70.3154 8.36687C70.3154 7.92893 70.4137 7.51221 70.6101 7.11668C70.8205 6.72115 71.1222 6.38212 71.515 6.0996C71.9219 5.80295 72.427 5.56987 73.0302 5.40036C73.6335 5.23084 74.3349 5.14609 75.1346 5.14609C76.6922 5.14609 77.8211 5.47098 78.523 6.12079C79.2243 6.77059 79.5753 7.68881 79.5753 8.87541C79.5753 9.03077 79.5542 9.31326 79.5121 9.72297C79.4836 10.1185 79.4415 10.5422 79.3859 10.9943C79.3438 11.4322 79.3017 11.8489 79.2596 12.2445C79.231 12.64 79.2175 12.9154 79.2175 13.0709C79.2175 13.424 79.2806 13.6782 79.4069 13.8337C79.5332 13.9749 79.673 14.0738 79.8278 14.1303C79.9962 14.1868 80.1435 14.2292 80.2697 14.2575C80.396 14.2857 80.4591 14.3563 80.4591 14.4694C80.4591 14.7801 80.4171 15.0979 80.3329 15.4229C80.2487 15.7477 80.1081 16.0444 79.912 16.3128C79.7293 16.5812 79.4701 16.8002 79.1333 16.9697C78.8102 17.1392 78.4103 17.2239 77.9338 17.2239C77.2604 17.2239 76.7553 17.0615 76.4186 16.7366C76.0819 16.4116 75.8571 15.9596 75.7452 15.3805C75.4084 15.8749 74.9663 16.3057 74.4191 16.673C73.886 17.0403 73.1846 17.2239 72.3147 17.2239C71.8938 17.2239 71.4939 17.1745 71.1151 17.0756C70.7504 16.9767 70.4277 16.8142 70.1471 16.5883C69.8806 16.3622 69.663 16.0726 69.4947 15.7195C69.3404 15.3522 69.2632 14.9143 69.2632 14.4058ZM75.8083 11.9902C75.443 11.9902 75.0856 12.0184 74.7348 12.075C74.3841 12.1314 74.0684 12.2233 73.7878 12.3504C73.5213 12.4634 73.3038 12.6188 73.1354 12.8166C72.967 13.0143 72.8829 13.2545 72.8829 13.537C72.8829 13.8619 72.9811 14.0879 73.1775 14.2151C73.3879 14.3422 73.6124 14.4058 73.8509 14.4058C74.0754 14.4058 74.2999 14.3563 74.5243 14.2575C74.7488 14.1586 74.9452 14.0102 75.1136 13.8125C75.2957 13.6006 75.4505 13.3463 75.5768 13.0497C75.7031 12.753 75.7797 12.3998 75.8083 11.9902ZM88.4027 5.14609C89.7218 5.14609 90.7109 5.55574 91.37 6.37506C92.0434 7.19437 92.3801 8.48689 92.3801 10.2527C92.3801 11.3545 92.2539 12.3363 92.0014 13.198C91.7488 14.0596 91.3978 14.7942 90.9491 15.4017C90.5004 15.995 89.9743 16.447 89.3708 16.7578C88.7672 17.0685 88.1149 17.2239 87.4136 17.2239C86.6703 17.2239 86.0878 17.0615 85.6669 16.7366C85.246 16.4116 84.9161 15.9526 84.6778 15.3593C84.6357 15.8678 84.6004 16.2563 84.5726 16.5247C84.5448 16.793 84.5238 17.0049 84.5095 17.1604C84.4952 17.3299 84.4817 17.4782 84.4674 17.6054C84.4674 17.7325 84.4531 17.902 84.4253 18.1139C84.411 18.3258 84.39 18.6153 84.3622 18.9826C84.3344 19.3499 84.2923 19.8584 84.2359 20.5083C84.2216 20.6778 84.187 20.7908 84.1307 20.8473C84.0743 20.9038 83.9556 20.9321 83.7729 20.9321H83.0153C82.5801 20.9321 82.2224 20.8826 81.942 20.7837C81.6752 20.699 81.458 20.5718 81.2896 20.4023C81.1356 20.2328 81.0228 20.0209 80.9529 19.7666C80.8966 19.5265 80.8688 19.244 80.8688 18.9191C80.8688 18.7778 80.8898 18.3964 80.9319 17.7749C80.974 17.1533 81.0228 16.4116 81.0792 15.55C81.1491 14.6741 81.2198 13.7348 81.2896 12.7318C81.3738 11.7288 81.4512 10.7753 81.5211 9.8713C81.591 8.95305 81.6474 8.14082 81.6895 7.43452C81.7459 6.72821 81.788 6.24086 81.8158 5.97246C81.8301 5.66169 81.8646 5.47804 81.921 5.42155C81.9631 5.37917 82.0751 5.35798 82.2577 5.35798H83.0784C83.8361 5.35798 84.3832 5.52043 84.7199 5.84533C85.0709 6.15611 85.246 6.53044 85.246 6.96836C85.5685 6.31855 85.9826 5.85239 86.4877 5.56987C87.007 5.28735 87.6451 5.14609 88.4027 5.14609ZM86.8665 7.96427C86.1509 7.96427 85.6248 8.27499 85.2881 8.89659C84.9514 9.51812 84.7831 10.3657 84.7831 11.4393C84.7831 11.8066 84.8041 12.1668 84.8462 12.5199C84.9026 12.873 84.9935 13.1909 85.1198 13.4735C85.246 13.756 85.4144 13.982 85.6248 14.1515C85.8496 14.321 86.1299 14.4058 86.4666 14.4058C87.0702 14.4058 87.5752 14.1091 87.9818 13.5158C88.3884 12.9225 88.5921 11.9902 88.5921 10.7189C88.5921 10.3657 88.5643 10.0267 88.5079 9.70178C88.4659 9.36276 88.3817 9.06611 88.2554 8.81184C88.1292 8.55757 87.954 8.35271 87.7293 8.19735C87.5046 8.04191 87.2175 7.96427 86.8665 7.96427ZM98.2373 17.2239C97.6195 17.2239 97.0024 17.1462 96.3854 16.9909C95.7819 16.8354 95.2347 16.5671 94.7439 16.1857C94.2666 15.8043 93.8736 15.2957 93.5654 14.6601C93.2565 14.0244 93.1024 13.2262 93.1024 12.2657C93.1024 11.9125 93.1302 11.4887 93.1866 10.9943C93.2422 10.4999 93.3475 9.99132 93.5023 9.4687C93.6706 8.94601 93.8946 8.43043 94.1757 7.92189C94.4703 7.3992 94.8491 6.93304 95.3121 6.52338C95.7751 6.11372 96.3358 5.78176 96.9957 5.52749C97.6548 5.27322 98.4402 5.14609 99.3527 5.14609C100.082 5.14609 100.7 5.23084 101.205 5.40036C101.71 5.56987 102.116 5.80295 102.425 6.0996C102.733 6.38212 102.958 6.71409 103.099 7.09549C103.238 7.4769 103.309 7.88655 103.309 8.32449C103.309 8.97424 103.175 9.52516 102.909 9.97724C102.657 10.4293 102.32 10.8107 101.899 11.1215C101.492 11.4181 101.036 11.6512 100.531 11.8207C100.026 11.9902 99.5278 12.1244 99.037 12.2233C98.5455 12.3081 98.09 12.3645 97.6691 12.3928C97.2617 12.4069 96.9461 12.414 96.7221 12.414C96.7221 12.6823 96.7567 12.9508 96.8273 13.2192C96.9115 13.4735 97.0303 13.6994 97.1851 13.8972C97.3391 14.095 97.5428 14.2575 97.7954 14.3846C98.0479 14.5117 98.3561 14.5753 98.7213 14.5753C99.0859 14.5753 99.3662 14.5188 99.5631 14.4058C99.7736 14.2787 99.9419 14.1444 100.068 14.0032C100.194 13.8478 100.3 13.7136 100.384 13.6006C100.482 13.4735 100.608 13.4099 100.763 13.4099C100.833 13.4099 100.952 13.4311 101.12 13.4735C101.302 13.5017 101.485 13.5723 101.668 13.6854C101.849 13.7983 102.011 13.9537 102.152 14.1515C102.291 14.3493 102.362 14.6035 102.362 14.9143C102.362 15.324 102.236 15.6771 101.983 15.9738C101.731 16.2704 101.401 16.5106 100.994 16.6942C100.601 16.8778 100.159 17.0121 99.6683 17.0968C99.1768 17.1816 98.7003 17.2239 98.2373 17.2239ZM98.6372 7.96427C98.3283 7.96427 98.0614 8.05607 97.8375 8.23973C97.627 8.40924 97.4444 8.62817 97.2903 8.89659C97.1498 9.16494 97.0378 9.46159 96.9536 9.78654C96.8829 10.1114 96.8273 10.4222 96.7852 10.7189C97.6548 10.7047 98.3561 10.5564 98.8897 10.2739C99.4369 9.99132 99.7104 9.58872 99.7104 9.06611C99.7104 8.78354 99.6187 8.52926 99.4369 8.3033C99.2685 8.07725 99.0017 7.96427 98.6372 7.96427Z" fill="white"/>
</g>
<defs>
<clipPath id="clip0_442_9684">
<rect width="118" height="28" fill="white"/>
</clipPath>
</defs>
</svg>
