<svg width="168" height="40" viewBox="0 0 168 40" fill="none" xmlns="http://www.w3.org/2000/svg">
<path d="M2.13965 30.2488C57.2601 36.5967 178.548 44.8145 158.919 21.0596" stroke="#D1E5F2" stroke-width="4" stroke-linecap="round"/>
<path d="M162.842 1.77079C165.502 2.74899 166.874 5.71984 165.906 8.40705C165.436 9.71068 164.501 10.7063 163.36 11.2761L158.243 14.1684L156.386 8.69131C155.884 7.51953 155.807 6.15925 156.273 4.8648C157.242 2.17767 160.182 0.792698 162.842 1.77079Z" fill="#D1E5F2"/>
<path d="M160.221 9.10058C161.556 9.59134 163.031 8.89612 163.517 7.54775C164.003 6.19939 163.315 4.70848 161.98 4.21771C160.645 3.72695 159.17 4.42217 158.684 5.77053C158.198 7.1189 158.886 8.60981 160.221 9.10058Z" fill="white"/>
<path d="M11.7111 24.6061C10.5326 24.6061 9.5638 24.5253 8.80477 24.3639C8.04574 24.2226 7.43651 24.0107 6.9771 23.7282C6.53766 23.4255 6.22806 23.0521 6.04829 22.6082C5.8885 22.1642 5.80859 21.6396 5.80859 21.0342C5.80859 20.8525 5.81858 20.6002 5.83856 20.2774C5.85853 19.9343 5.8885 19.4601 5.92844 18.8547C5.96839 18.2493 6.01833 17.4723 6.07825 16.5239C6.15815 15.5552 6.25802 14.3444 6.37787 12.8915C6.51769 11.0954 6.62755 9.67268 6.70745 8.62332C6.78735 7.57395 6.84727 6.76674 6.88722 6.2017C6.92716 5.61647 6.94714 5.21287 6.94714 4.99089C6.96712 4.74873 6.9771 4.54692 6.9771 4.38548C6.9771 4.0626 6.9771 3.80025 6.9771 3.59846C6.99708 3.39665 7.01705 3.2453 7.03703 3.1444C7.07697 3.02332 7.12691 2.9426 7.18684 2.90224C7.26674 2.8417 7.37659 2.81143 7.51642 2.81143C8.69491 2.7307 9.69364 2.67016 10.5126 2.62981C11.3515 2.58944 12.0806 2.56927 12.6998 2.56927C14.2179 2.56927 15.5162 2.70043 16.5948 2.96278C17.6935 3.20494 18.5823 3.55809 19.2614 4.02224C19.9406 4.48638 20.4399 5.06152 20.7595 5.74764C21.0792 6.43376 21.2389 7.2107 21.2389 8.07845C21.2389 8.56278 21.1889 9.06728 21.0891 9.59197C20.9893 10.0965 20.8194 10.5808 20.5798 11.045C20.3401 11.5091 20.0105 11.9228 19.591 12.2861C19.1916 12.6291 18.6822 12.8813 18.063 13.0428C19.2215 13.4061 20.0404 14.0115 20.5198 14.859C20.9992 15.6864 21.2389 16.6752 21.2389 17.8255C21.2389 18.7537 21.0891 19.6316 20.7895 20.459C20.4899 21.2662 19.9706 21.9826 19.2315 22.6082C18.4924 23.2136 17.5137 23.6979 16.2952 24.0612C15.0767 24.4244 13.5487 24.6061 11.7111 24.6061ZM13.4189 15.2223C13.1992 15.2223 12.9295 15.2424 12.6099 15.2828C12.2903 15.3029 11.9607 15.3434 11.6212 15.4039L11.2916 20.3379C12.0107 20.5599 12.6599 20.6709 13.2391 20.6709C13.8584 20.6709 14.3577 20.5801 14.7372 20.3985C15.1168 20.2169 15.4063 19.9948 15.6061 19.7325C15.8258 19.4499 15.9656 19.1472 16.0256 18.8244C16.1055 18.4813 16.1454 18.1685 16.1454 17.8861C16.1454 17.1394 15.9357 16.5137 15.5162 16.0093C15.1168 15.4845 14.4176 15.2223 13.4189 15.2223ZM12.1605 6.89791C12.1206 7.4226 12.0806 8.03809 12.0406 8.7444C12.0206 9.4507 11.9807 10.2175 11.9208 11.045C12.5599 11.2064 13.1292 11.2871 13.6286 11.2871C14.2279 11.2871 14.7072 11.2164 15.0668 11.0752C15.4263 10.9339 15.7059 10.7523 15.9057 10.5303C16.1254 10.3084 16.2653 10.0662 16.3252 9.80386C16.4051 9.54151 16.445 9.28927 16.445 9.0471C16.445 8.42151 16.2353 7.88674 15.8158 7.44278C15.4164 6.97863 14.7172 6.74656 13.7185 6.74656C13.4988 6.74656 13.2491 6.76674 12.9695 6.8071C12.7098 6.82728 12.4401 6.85755 12.1605 6.89791ZM29.4625 24.6061C28.0842 24.6061 26.9357 24.4143 26.0169 24.0309C25.118 23.6272 24.3989 23.0824 23.8596 22.3963C23.3203 21.7102 22.9409 20.9131 22.7211 20.005C22.5014 19.0766 22.3915 18.0878 22.3915 17.0385C22.3915 15.8277 22.5313 14.6471 22.8109 13.4969C23.1106 12.3264 23.61 11.2871 24.309 10.379C25.0082 9.47089 25.927 8.7444 27.0655 8.19954C28.2241 7.63449 29.6622 7.35197 31.38 7.35197C33.8968 7.35197 35.6945 7.97756 36.7731 9.22873C37.8718 10.4597 38.421 12.1952 38.421 14.4352C38.421 15.0608 38.3712 15.757 38.2712 16.5239C38.1914 17.2705 38.0216 18.0172 37.7619 18.7639C37.5222 19.5105 37.1826 20.237 36.7432 20.9434C36.3237 21.6496 35.7844 22.2752 35.1252 22.8201C34.4661 23.365 33.6672 23.7988 32.7283 24.1217C31.8095 24.4445 30.7209 24.6061 29.4625 24.6061ZM30.8707 11.3779C30.1117 11.3779 29.5025 11.5797 29.043 11.9834C28.6036 12.3667 28.264 12.841 28.0243 13.4061C27.8046 13.9509 27.6548 14.5361 27.5749 15.1617C27.5149 15.7671 27.485 16.2817 27.485 16.7055C27.485 18.0374 27.6947 19.0161 28.1142 19.6417C28.5336 20.2672 29.1329 20.5801 29.9119 20.5801C30.6111 20.5801 31.1803 20.3581 31.6197 19.9142C32.0792 19.4702 32.4287 18.9354 32.6684 18.3098C32.9281 17.6842 33.0979 17.0283 33.1777 16.3423C33.2777 15.6561 33.3275 15.081 33.3275 14.6169C33.3275 13.6078 33.1378 12.8208 32.7583 12.2558C32.3987 11.6705 31.7695 11.3779 30.8707 11.3779ZM46.4705 24.6061C45.0922 24.6061 43.9437 24.4143 43.0249 24.0309C42.126 23.6272 41.4069 23.0824 40.8676 22.3963C40.3283 21.7102 39.9488 20.9131 39.7291 20.005C39.5094 19.0766 39.3995 18.0878 39.3995 17.0385C39.3995 15.8277 39.5394 14.6471 39.819 13.4969C40.1186 12.3264 40.618 11.2871 41.3171 10.379C42.0161 9.47089 42.935 8.7444 44.0735 8.19954C45.2321 7.63449 46.6703 7.35197 48.388 7.35197C50.9048 7.35197 52.7025 7.97756 53.7812 9.22873C54.8798 10.4597 55.4291 12.1952 55.4291 14.4352C55.4291 15.0608 55.3791 15.757 55.2792 16.5239C55.1993 17.2705 55.0296 18.0172 54.7699 18.7639C54.5302 19.5105 54.1907 20.237 53.7512 20.9434C53.3317 21.6496 52.7924 22.2752 52.1333 22.8201C51.4741 23.365 50.6751 23.7988 49.7363 24.1217C48.8174 24.4445 47.7289 24.6061 46.4705 24.6061ZM47.8787 11.3779C47.1197 11.3779 46.5104 11.5797 46.051 11.9834C45.6115 12.3667 45.272 12.841 45.0323 13.4061C44.8126 13.9509 44.6628 14.5361 44.5829 15.1617C44.523 15.7671 44.493 16.2817 44.493 16.7055C44.493 18.0374 44.7027 19.0161 45.1222 19.6417C45.5417 20.2672 46.1409 20.5801 46.9199 20.5801C47.619 20.5801 48.1883 20.3581 48.6277 19.9142C49.0871 19.4702 49.4367 18.9354 49.6764 18.3098C49.9361 17.6842 50.1058 17.0283 50.1857 16.3423C50.2856 15.6561 50.3355 15.081 50.3355 14.6169C50.3355 13.6078 50.1458 12.8208 49.7663 12.2558C49.4067 11.6705 48.7775 11.3779 47.8787 11.3779ZM70.9989 21.8515C70.9989 21.9523 70.9489 22.1542 70.8491 22.4569C70.7492 22.7596 70.5894 23.0723 70.3697 23.3952C70.1499 23.7181 69.8703 24.0006 69.5308 24.2428C69.2111 24.485 68.8216 24.6061 68.3623 24.6061C67.823 24.6061 67.2836 24.4244 66.7443 24.0612C66.2249 23.6979 65.7056 23.2035 65.1863 22.5779C64.6669 21.9523 64.1377 21.2158 63.5983 20.3682C63.0789 19.5004 62.5497 18.5621 62.0104 17.5531C61.9304 18.6226 61.8505 19.672 61.7707 20.7012C61.6907 21.7304 61.6108 22.7293 61.531 23.6979C61.511 23.9401 61.461 24.1015 61.3812 24.1823C61.3012 24.2629 61.1314 24.3034 60.8718 24.3034H59.7932C59.174 24.3034 58.6646 24.2428 58.2652 24.1217C57.8656 23.9804 57.556 23.7888 57.3363 23.5466C57.1165 23.3044 56.9568 23.0017 56.8569 22.6385C56.777 22.255 56.7371 21.8212 56.7371 21.3369C56.7371 21.0947 56.747 20.8424 56.7671 20.5801C56.787 20.3177 56.8169 19.9444 56.8569 19.4601C56.8969 18.9758 56.9468 18.3401 57.0068 17.5531C57.0866 16.7661 57.1765 15.7267 57.2764 14.4352C57.3762 13.1437 57.4861 11.5596 57.606 9.68278C57.7457 7.78584 57.8955 5.4853 58.0554 2.78116C58.0753 2.33719 58.1253 2.07484 58.2052 1.99413C58.2652 1.93359 58.4249 1.90332 58.6846 1.90332H59.8531C60.4723 1.90332 60.9816 1.97395 61.3812 2.11521C61.7806 2.25647 62.1003 2.44819 62.34 2.69035C62.5796 2.93251 62.7394 3.21503 62.8193 3.53791C62.9192 3.86079 62.9692 4.19376 62.9692 4.53683C62.9692 4.73863 62.9491 5.0817 62.9092 5.56602C62.8892 6.03016 62.8593 6.6053 62.8193 7.29143C62.7793 7.95737 62.7194 8.71413 62.6396 9.5617C62.5796 10.4093 62.5197 11.2972 62.4598 12.2255L67.2537 7.80602C67.4335 7.64457 67.5932 7.53359 67.7331 7.47305C67.8928 7.41251 68.0127 7.38224 68.0926 7.38224C68.3123 7.38224 68.552 7.52349 68.8117 7.80602C69.0713 8.08854 69.311 8.42151 69.5308 8.80494C69.7705 9.16819 69.9602 9.5516 70.1001 9.95521C70.2598 10.3386 70.3398 10.6514 70.3398 10.8936C70.3398 11.4788 69.8703 12.0943 68.9315 12.7401C68.0127 13.3858 66.6144 14.1123 64.7369 14.9196C65.5758 15.868 66.3747 16.7358 67.1338 17.5228C67.8928 18.3098 68.552 19.0061 69.1113 19.6115C69.6905 20.2169 70.1499 20.7112 70.4896 21.0947C70.8291 21.4781 70.9989 21.7304 70.9989 21.8515ZM79.0005 7.35197C80.6984 7.35197 81.9468 7.69503 82.7457 8.38116C83.5448 9.0471 83.9442 9.90476 83.9442 10.9542C83.9442 11.8421 83.6646 12.5181 83.1053 12.9823C82.566 13.4464 81.777 13.6785 80.7383 13.6785C80.4587 13.6785 80.269 13.6482 80.169 13.5877C80.0692 13.5271 80.0192 13.4161 80.0192 13.2547C80.0192 13.0731 79.9993 12.8712 79.9593 12.6493C79.9394 12.4071 79.8694 12.1851 79.7496 11.9834C79.6497 11.7613 79.4799 11.5797 79.2402 11.4385C79.0205 11.2972 78.7009 11.2266 78.2814 11.2266C77.7222 11.2266 77.2728 11.3678 76.9332 11.6504C76.5936 11.9126 76.4238 12.2456 76.4238 12.6493C76.4238 13.0731 76.5936 13.4161 76.9332 13.6785C77.2927 13.9206 77.7322 14.1526 78.2515 14.3747C78.7908 14.5966 79.3701 14.8288 79.9893 15.0709C80.6085 15.2929 81.1778 15.5956 81.6971 15.979C82.2364 16.3624 82.6759 16.8467 83.0154 17.432C83.3749 17.997 83.5547 18.7336 83.5547 19.6417C83.5547 21.0947 83.0454 22.2853 82.0267 23.2136C81.008 24.1418 79.4799 24.6061 77.4425 24.6061C76.8833 24.6061 76.2341 24.5556 75.495 24.4547C74.7759 24.3739 74.0868 24.2428 73.4276 24.0612C72.7685 23.8594 72.2093 23.597 71.7498 23.2742C71.3104 22.9512 71.0906 22.5477 71.0906 22.0634C71.0906 21.8817 71.1206 21.6597 71.1805 21.3974C71.2604 21.135 71.3703 20.8828 71.5101 20.6406C71.6699 20.3985 71.8497 20.1966 72.0494 20.0352C72.2692 19.8536 72.5288 19.7628 72.8284 19.7628C73.0681 19.7628 73.2879 19.8234 73.4875 19.9444C73.6873 20.0655 73.9171 20.1966 74.1767 20.3379C74.4564 20.459 74.7959 20.5801 75.1954 20.7012C75.5949 20.8223 76.1242 20.8828 76.7833 20.8828C77.2827 20.8828 77.7222 20.8223 78.1017 20.7012C78.5012 20.5801 78.7009 20.3077 78.7009 19.8839C78.7009 19.5004 78.5411 19.1977 78.2215 18.9758C77.902 18.7336 77.4925 18.5116 76.9931 18.3098C76.5137 18.108 75.9844 17.8961 75.4051 17.6742C74.8459 17.432 74.3165 17.1191 73.8171 16.7358C73.3377 16.3523 72.9383 15.868 72.6187 15.2828C72.2991 14.6774 72.1393 13.9004 72.1393 12.952C72.1393 11.9228 72.3391 11.055 72.7385 10.3487C73.158 9.62224 73.6873 9.03701 74.3265 8.59305C74.9856 8.14908 75.7247 7.83629 76.5437 7.65467C77.3627 7.45287 78.1816 7.35197 79.0005 7.35197ZM92.7448 20.5801C93.3241 20.5801 93.8235 20.4994 94.2429 20.3379C94.6823 20.1764 95.0619 19.9948 95.3815 19.7931C95.701 19.5912 95.9707 19.4096 96.1905 19.2482C96.4101 19.0867 96.6099 19.0061 96.7897 19.0061C97.2491 19.0061 97.4788 19.3088 97.4788 19.9142C97.4788 20.0554 97.4489 20.2572 97.3889 20.5196C97.329 20.7617 97.2491 21.024 97.1492 21.3066C97.0493 21.5689 96.9395 21.8212 96.8197 22.0634C96.7197 22.3055 96.6199 22.4871 96.52 22.6082C96.4201 22.7091 96.2403 22.8705 95.9807 23.0925C95.741 23.3145 95.4115 23.5364 94.992 23.7585C94.5725 23.9804 94.0831 24.1721 93.5239 24.3336C92.9645 24.5152 92.3453 24.6061 91.6662 24.6061C90.9071 24.6061 90.1182 24.495 89.2992 24.2731C88.5002 24.0309 87.7712 23.6272 87.112 23.0623C86.4529 22.477 85.9035 21.7001 85.4641 20.7315C85.0447 19.7426 84.8349 18.5116 84.8349 17.0385C84.8349 16.5137 84.8649 15.9185 84.9248 15.2525C85.0046 14.5664 85.1545 13.8702 85.3742 13.1639C85.5939 12.4374 85.8836 11.731 86.2431 11.045C86.6226 10.3386 87.122 9.71305 87.7412 9.16818C88.3604 8.62332 89.0995 8.18944 89.9584 7.86656C90.8372 7.52349 91.876 7.35197 93.0744 7.35197C94.0531 7.35197 94.892 7.47305 95.5912 7.71521C96.3103 7.93719 96.8995 8.24999 97.359 8.65359C97.8183 9.03701 98.1579 9.49106 98.3777 10.0158C98.6174 10.5404 98.7372 11.1055 98.7372 11.7109C98.7372 12.8006 98.3976 13.6078 97.7185 14.1325C97.0393 14.637 96.0806 14.8893 94.8422 14.8893C94.5426 14.8893 94.3328 14.8691 94.213 14.8288C94.113 14.7682 94.0632 14.6471 94.0632 14.4655C94.0632 13.9812 94.0531 13.5472 94.0332 13.1639C94.0132 12.7804 93.9533 12.4575 93.8534 12.1952C93.7735 11.9329 93.6437 11.731 93.4639 11.5898C93.2842 11.4485 93.0245 11.3779 92.6849 11.3779C92.0657 11.3779 91.5663 11.5797 91.1868 11.9834C90.8273 12.3869 90.5476 12.8813 90.3479 13.4666C90.1681 14.0316 90.0483 14.6169 89.9884 15.2223C89.9483 15.8277 89.9284 16.3321 89.9284 16.7358C89.9284 18.1685 90.1481 19.1675 90.5876 19.7325C91.047 20.2975 91.7661 20.5801 92.7448 20.5801ZM98.6117 20.5801C98.6117 18.7639 99.4207 17.3412 101.039 16.312C102.657 15.2828 105.044 14.7278 108.2 14.6471C108.219 14.4251 108.23 14.2435 108.23 14.1023C108.249 13.9408 108.26 13.7491 108.26 13.5271C108.26 12.8813 108.14 12.3667 107.9 11.9834C107.66 11.5999 107.161 11.4082 106.402 11.4082C105.982 11.4082 105.643 11.4688 105.383 11.5898C105.123 11.7109 104.914 11.8824 104.754 12.1044C104.594 12.3062 104.464 12.5585 104.364 12.8612C104.265 13.1639 104.175 13.4969 104.095 13.8601C104.055 14.0417 103.965 14.1628 103.825 14.2234C103.685 14.2637 103.465 14.2839 103.166 14.2839C101.128 14.2839 100.11 13.5069 100.11 11.9531C100.11 11.3275 100.25 10.7322 100.529 10.1671C100.829 9.60206 101.258 9.11773 101.818 8.71413C102.397 8.29035 103.116 7.95737 103.975 7.71521C104.834 7.47305 105.832 7.35197 106.971 7.35197C109.189 7.35197 110.796 7.81611 111.795 8.7444C112.794 9.67268 113.293 10.9844 113.293 12.6796C113.293 12.9015 113.263 13.3051 113.203 13.8904C113.163 14.4554 113.103 15.0608 113.024 15.7066C112.964 16.3321 112.904 16.9275 112.844 17.4925C112.803 18.0575 112.784 18.451 112.784 18.6731C112.784 19.1775 112.874 19.5408 113.054 19.7628C113.233 19.9645 113.432 20.1058 113.653 20.1866C113.893 20.2672 114.102 20.3278 114.282 20.3682C114.462 20.4085 114.552 20.5094 114.552 20.6709C114.552 21.1148 114.492 21.5689 114.372 22.0331C114.252 22.4972 114.052 22.921 113.773 23.3044C113.513 23.6878 113.143 24.0006 112.664 24.2428C112.204 24.485 111.635 24.6061 110.956 24.6061C109.997 24.6061 109.278 24.3739 108.799 23.9098C108.32 23.4456 108 22.7999 107.84 21.9725C107.361 22.6788 106.731 23.2943 105.952 23.819C105.193 24.3437 104.195 24.6061 102.956 24.6061C102.357 24.6061 101.788 24.5354 101.248 24.3942C100.729 24.2529 100.27 24.0208 99.8701 23.6979C99.4906 23.375 99.181 22.9613 98.9413 22.4569C98.7216 21.9321 98.6117 21.3066 98.6117 20.5801ZM107.93 17.1293C107.41 17.1293 106.901 17.1696 106.402 17.2504C105.902 17.331 105.453 17.4623 105.053 17.6439C104.674 17.8053 104.364 18.0272 104.125 18.3098C103.885 18.5923 103.765 18.9354 103.765 19.339C103.765 19.8031 103.905 20.1261 104.185 20.3077C104.484 20.4893 104.804 20.5801 105.143 20.5801C105.463 20.5801 105.783 20.5094 106.102 20.3682C106.422 20.2269 106.701 20.015 106.941 19.7325C107.2 19.4298 107.421 19.0666 107.601 18.6428C107.78 18.219 107.889 17.7145 107.93 17.1293ZM125.861 7.35197C127.739 7.35197 129.147 7.93719 130.086 9.10764C131.045 10.2781 131.524 12.1245 131.524 14.6471C131.524 16.2212 131.344 17.6237 130.985 18.8547C130.625 20.0856 130.125 21.135 129.487 22.0028C128.848 22.8504 128.099 23.4961 127.239 23.9401C126.38 24.384 125.451 24.6061 124.453 24.6061C123.395 24.6061 122.565 24.3739 121.966 23.9098C121.367 23.4456 120.897 22.7898 120.558 21.9423C120.498 22.6688 120.448 23.2237 120.408 23.6071C120.369 23.9905 120.339 24.2932 120.318 24.5152C120.298 24.7574 120.279 24.9693 120.258 25.1509C120.258 25.3325 120.238 25.5747 120.198 25.8774C120.178 26.1801 120.148 26.5937 120.109 27.1185C120.069 27.6431 120.009 28.3696 119.929 29.2979C119.908 29.5401 119.859 29.7015 119.779 29.7823C119.699 29.8629 119.53 29.9034 119.27 29.9034H118.191C117.571 29.9034 117.062 29.8326 116.663 29.6915C116.283 29.5704 115.974 29.3888 115.734 29.1466C115.515 28.9044 115.354 28.6017 115.255 28.2385C115.174 27.8954 115.135 27.4918 115.135 27.0277C115.135 26.8258 115.165 26.281 115.225 25.3931C115.285 24.5051 115.354 23.4456 115.434 22.2147C115.534 20.9635 115.635 19.6215 115.734 18.1888C115.854 16.7559 115.964 15.3937 116.064 14.1023C116.163 12.7905 116.243 11.6302 116.303 10.6212C116.384 9.61214 116.444 8.91593 116.483 8.53251C116.503 8.08854 116.553 7.8262 116.633 7.74548C116.693 7.68494 116.852 7.65467 117.112 7.65467H118.281C119.359 7.65467 120.138 7.88675 120.618 8.35089C121.118 8.79486 121.367 9.32962 121.367 9.95521C121.826 9.02692 122.416 8.36097 123.135 7.95737C123.874 7.55377 124.783 7.35197 125.861 7.35197ZM123.674 11.3779C122.655 11.3779 121.906 11.8218 121.427 12.7098C120.947 13.5977 120.708 14.8085 120.708 16.3423C120.708 16.8669 120.738 17.3815 120.798 17.8861C120.878 18.3905 121.007 18.8445 121.187 19.2482C121.367 19.6518 121.607 19.9747 121.906 20.2169C122.226 20.459 122.625 20.5801 123.105 20.5801C123.964 20.5801 124.683 20.1563 125.262 19.3088C125.841 18.4612 126.131 17.1293 126.131 15.3131C126.131 14.8085 126.091 14.3242 126.011 13.8601C125.951 13.3758 125.831 12.952 125.651 12.5888C125.472 12.2255 125.222 11.9329 124.902 11.7109C124.582 11.4889 124.174 11.3779 123.674 11.3779ZM139.863 24.6061C138.983 24.6061 138.105 24.495 137.226 24.2731C136.367 24.051 135.588 23.6677 134.889 23.1228C134.21 22.5779 133.65 21.8515 133.211 20.9434C132.772 20.0352 132.552 18.895 132.552 17.5228C132.552 17.0183 132.592 16.4129 132.672 15.7066C132.751 15.0002 132.901 14.2737 133.122 13.5271C133.361 12.7804 133.68 12.0439 134.08 11.3174C134.5 10.5707 135.039 9.90476 135.698 9.31954C136.357 8.7343 137.156 8.26008 138.095 7.89683C139.034 7.53359 140.152 7.35197 141.451 7.35197C142.489 7.35197 143.368 7.47305 144.088 7.71521C144.807 7.95737 145.386 8.29035 145.825 8.71413C146.264 9.11773 146.584 9.59197 146.784 10.1368C146.983 10.6817 147.084 11.2669 147.084 11.8925C147.084 12.8208 146.893 13.6078 146.514 14.2536C146.155 14.8994 145.676 15.4442 145.076 15.8882C144.496 16.312 143.848 16.645 143.129 16.8871C142.41 17.1293 141.7 17.321 141.002 17.4623C140.302 17.5834 139.653 17.664 139.054 17.7044C138.474 17.7245 138.025 17.7347 137.706 17.7347C137.706 18.1181 137.755 18.5015 137.856 18.885C137.975 19.2482 138.144 19.571 138.365 19.8536C138.584 20.1361 138.874 20.3682 139.234 20.5498C139.593 20.7315 140.032 20.8223 140.552 20.8223C141.071 20.8223 141.47 20.7415 141.751 20.5801C142.05 20.3985 142.29 20.2067 142.47 20.005C142.649 19.7829 142.799 19.5912 142.919 19.4298C143.058 19.2482 143.238 19.1574 143.458 19.1574C143.558 19.1574 143.728 19.1877 143.968 19.2482C144.227 19.2885 144.487 19.3894 144.747 19.5509C145.006 19.7123 145.236 19.9343 145.436 20.2169C145.635 20.4994 145.735 20.8626 145.735 21.3066C145.735 21.8918 145.556 22.3963 145.196 22.8201C144.837 23.2439 144.367 23.5869 143.788 23.8493C143.228 24.1116 142.599 24.3034 141.9 24.4244C141.201 24.5455 140.522 24.6061 139.863 24.6061ZM140.432 11.3779C139.992 11.3779 139.613 11.5091 139.294 11.7715C138.994 12.0136 138.734 12.3264 138.515 12.7098C138.315 13.0932 138.155 13.517 138.035 13.9812C137.935 14.4453 137.856 14.8893 137.796 15.3131C139.034 15.2929 140.032 15.081 140.792 14.6774C141.571 14.2737 141.96 13.6986 141.96 12.952C141.96 12.5483 141.83 12.1851 141.571 11.8623C141.331 11.5394 140.951 11.3779 140.432 11.3779Z" fill="#6AABD5"/>
</svg>
