<svg xmlns="http://www.w3.org/2000/svg" fill="none" viewBox="0 0 168 40"><path stroke="var(--logo-color-sub, #d1e5f2)" stroke-linecap="round" stroke-width="4" d="M2.14 30.25c55.12 6.348 176.408 14.566 156.779-9.19"/><path fill="var(--logo-color-sub, #d1e5f2)" d="M156.273 4.865c.969-2.687 3.909-4.072 6.569-3.094 2.659.978 4.032 3.95 3.064 6.636a5.14 5.14 0 0 1-2.546 2.87l-5.117 2.892-1.857-5.478a5.2 5.2 0 0 1-.113-3.826m5.706-.648a2.563 2.563 0 0 0-3.295 1.553c-.486 1.348.202 2.839 1.537 3.33a2.565 2.565 0 0 0 3.296-1.553c.485-1.348-.203-2.84-1.538-3.33"/><path fill="var(--logo-color-main, #6aabd5)" d="M11.711 24.605q-1.767 0-2.906-.242-1.139-.212-1.828-.636-.66-.454-.929-1.12-.24-.666-.24-1.574 0-.272.03-.757.03-.515.09-1.422.06-.909.15-2.331l.3-3.633q.21-2.693.33-4.268t.18-2.421q.06-.88.06-1.211.03-.363.03-.605v-.788q.03-.302.059-.454.06-.18.15-.242.12-.09.33-.09 1.767-.122 2.996-.182 1.258-.06 2.187-.06 2.277 0 3.895.393 1.648.363 2.666 1.06 1.02.695 1.499 1.725t.479 2.33a8 8 0 0 1-.15 1.514q-.15.757-.51 1.453-.359.696-.988 1.241-.6.514-1.528.757 1.738.545 2.457 1.816.72 1.24.719 2.967 0 1.392-.45 2.633-.449 1.21-1.558 2.15-1.108.907-2.936 1.452-1.827.546-4.584.545m1.708-9.384q-.33 0-.81.06-.478.03-.988.122l-.33 4.934q1.08.333 1.948.333.93 0 1.498-.273.57-.272.87-.665.329-.425.419-.909.12-.514.12-.938 0-1.12-.63-1.877-.6-.787-2.097-.787M12.16 6.897q-.06.787-.12 1.846-.03 1.06-.12 2.301.958.242 1.708.242.898 0 1.438-.212t.839-.545q.33-.333.42-.726.12-.393.119-.757 0-.938-.63-1.604-.599-.696-2.096-.696-.33 0-.75.06-.39.03-.808.09m17.302 17.708q-2.068 0-3.446-.575-1.348-.606-2.157-1.635a6.2 6.2 0 0 1-1.139-2.391q-.33-1.392-.33-2.966 0-1.817.42-3.542.45-1.755 1.498-3.118 1.05-1.362 2.756-2.18 1.739-.846 4.315-.847 3.775 0 5.393 1.877 1.648 1.846 1.648 5.206 0 .939-.15 2.089a10 10 0 0 1-.51 2.24 9.8 9.8 0 0 1-1.018 2.18 7.2 7.2 0 0 1-1.618 1.876q-.988.817-2.397 1.302-1.378.484-3.266.484m1.408-13.228q-1.139 0-1.828.605-.66.576-1.019 1.423-.33.817-.45 1.756-.09.908-.089 1.543 0 1.998.63 2.937.629.938 1.797.938 1.049 0 1.708-.666.69-.666 1.048-1.604a7.3 7.3 0 0 0 .51-1.968q.15-1.029.15-1.725 0-1.514-.57-2.361-.54-.879-1.887-.878m15.6 13.228q-2.068 0-3.446-.575-1.349-.606-2.157-1.635a6.2 6.2 0 0 1-1.139-2.391q-.33-1.392-.33-2.966 0-1.817.42-3.542.45-1.755 1.498-3.118 1.05-1.362 2.757-2.18 1.737-.846 4.314-.847 3.776 0 5.393 1.877 1.648 1.846 1.648 5.206 0 .939-.15 2.089-.12 1.12-.51 2.24a9.8 9.8 0 0 1-1.018 2.18 7.2 7.2 0 0 1-1.618 1.876q-.988.817-2.397 1.302-1.378.484-3.265.484m1.408-13.228q-1.14 0-1.828.605-.66.576-1.019 1.423-.33.817-.45 1.756-.089.908-.089 1.543 0 1.998.63 2.937.629.938 1.797.938 1.048 0 1.708-.666.69-.666 1.048-1.604.39-.939.51-1.968.15-1.029.15-1.725 0-1.514-.57-2.361-.54-.879-1.887-.878m23.12 10.474q0 .15-.15.605t-.48.938q-.33.485-.838.848-.48.363-1.169.363-.808 0-1.618-.545-.779-.544-1.558-1.483a22 22 0 0 1-1.588-2.21 67 67 0 0 1-1.588-2.815q-.12 1.605-.24 3.148t-.239 2.997q-.03.364-.15.484t-.51.121h-1.078q-.928 0-1.528-.181-.6-.212-.929-.575a2.2 2.2 0 0 1-.48-.909 6.4 6.4 0 0 1-.119-1.301q0-.364.03-.757t.09-1.12q.06-.726.15-1.907.12-1.18.27-3.118.15-1.936.329-4.752.21-2.846.45-6.902.03-.666.15-.787.09-.09.479-.09h1.168q.93 0 1.528.211.6.212.959.575.36.364.48.848.15.485.15.999 0 .303-.06 1.03-.03.695-.09 1.724-.06 1-.18 2.27-.09 1.272-.18 2.665l4.794-4.42q.27-.242.48-.333.239-.09.359-.09.33 0 .719.423.39.425.719.999.36.545.57 1.15.239.575.239.939 0 .877-1.409 1.846-1.378.969-4.194 2.18a82 82 0 0 0 2.397 2.603q1.139 1.18 1.977 2.089.87.908 1.379 1.483.51.575.509.756M79 7.35q2.546 0 3.745 1.03 1.198.998 1.198 2.572 0 1.332-.839 2.028-.809.696-2.367.697-.42 0-.569-.091-.15-.09-.15-.333 0-.273-.06-.606a1.5 1.5 0 0 0-.21-.666q-.15-.333-.509-.544-.33-.212-.959-.212-.838 0-1.348.423-.51.394-.51 1 0 .635.51 1.029.54.363 1.318.696.81.333 1.738.696.93.333 1.708.908.81.575 1.318 1.453.54.848.54 2.21 0 2.179-1.528 3.572-1.528 1.392-4.585 1.392-.838 0-1.947-.151a13.4 13.4 0 0 1-2.067-.394q-.99-.303-1.678-.787-.66-.484-.66-1.21 0-.273.09-.667.12-.393.33-.756.24-.363.54-.606.33-.272.778-.272.36 0 .66.181.3.182.689.394.42.181 1.018.363.6.182 1.588.182.75 0 1.319-.182.6-.18.599-.817 0-.575-.48-.908-.478-.363-1.228-.666a53 53 0 0 0-1.588-.636 7.5 7.5 0 0 1-1.588-.938 4.7 4.7 0 0 1-1.198-1.453q-.48-.909-.48-2.331 0-1.544.6-2.603a5.4 5.4 0 0 1 1.587-1.756 6.4 6.4 0 0 1 2.218-.938A10.2 10.2 0 0 1 79 7.35m13.744 13.228q.869 0 1.498-.242.66-.242 1.139-.545.479-.302.808-.545.33-.242.6-.242.69 0 .689.908 0 .211-.09.606-.09.363-.24.787-.15.393-.33.756-.15.363-.299.545-.15.151-.54.485-.359.333-.988.666-.63.333-1.468.575a6 6 0 0 1-1.858.272q-1.138 0-2.367-.333a6 6 0 0 1-2.187-1.21q-.99-.879-1.648-2.332-.63-1.483-.63-3.692 0-.787.09-1.786.12-1.03.45-2.09.33-1.089.87-2.118a6.7 6.7 0 0 1 1.497-1.877q.93-.818 2.217-1.301 1.32-.515 3.116-.515 1.47 0 2.517.363 1.08.333 1.768.939.69.575 1.019 1.362.36.787.36 1.695 0 1.635-1.02 2.422-1.018.756-2.876.756-.45 0-.629-.06-.15-.09-.15-.364 0-.726-.03-1.301a3.2 3.2 0 0 0-.18-.969 1.2 1.2 0 0 0-.39-.605q-.268-.212-.778-.212-.93 0-1.498.605-.54.605-.84 1.484a8.6 8.6 0 0 0-.359 1.755q-.06.909-.06 1.514 0 2.15.66 2.997.688.847 2.157.847m5.867 0q0-2.724 2.427-4.268t7.161-1.665q.03-.333.03-.545.03-.242.03-.575 0-.969-.36-1.544t-1.498-.575q-.63 0-1.019.182-.39.18-.629.515-.24.302-.39.756-.149.454-.269 1-.06.271-.27.362-.21.06-.659.06-3.056 0-3.056-2.33 0-.938.419-1.786.45-.848 1.289-1.453.868-.636 2.157-.999 1.288-.363 2.996-.363 3.326 0 4.824 1.392 1.498 1.393 1.498 3.936 0 .332-.09 1.21-.06.847-.179 1.817-.09.937-.18 1.786-.06.846-.06 1.18 0 .757.27 1.09.268.303.599.424.36.12.629.181.27.06.27.303 0 .666-.18 1.362t-.599 1.271q-.39.576-1.109.939-.69.363-1.708.363-1.439 0-2.157-.696-.719-.696-.959-1.937-.719 1.059-1.888 1.846-1.138.787-2.996.787-.898 0-1.708-.212a3.7 3.7 0 0 1-1.378-.696 3.7 3.7 0 0 1-.929-1.241q-.33-.787-.33-1.877m9.318-3.45q-.78 0-1.528.12-.75.121-1.349.394a2.45 2.45 0 0 0-.928.666q-.36.423-.36 1.03 0 .695.42.968.449.272.958.272.48 0 .959-.212.48-.212.839-.635.39-.454.66-1.09.268-.636.329-1.514m17.931-9.778q2.817 0 4.225 1.756 1.438 1.755 1.438 5.54 0 2.36-.539 4.207-.54 1.846-1.498 3.148-.958 1.27-2.248 1.937a6 6 0 0 1-2.786.666q-1.588 0-2.487-.696t-1.408-1.968q-.09 1.09-.15 1.665-.059.575-.09.908-.03.363-.06.636 0 .273-.06.726a165 165 0 0 1-.269 3.421q-.03.364-.15.484t-.509.121h-1.079q-.93 0-1.528-.212a2.24 2.24 0 0 1-.929-.544 2.2 2.2 0 0 1-.479-.909 5.3 5.3 0 0 1-.12-1.21q0-.303.09-1.635t.209-3.178q.15-1.877.3-4.026.18-2.15.33-4.087.149-1.968.239-3.48.121-1.514.18-2.09.03-.665.15-.786.09-.091.479-.091h1.169q1.617 0 2.337.696.75.666.749 1.604.689-1.392 1.768-1.998 1.109-.605 2.726-.605m-2.187 4.026q-1.529 0-2.247 1.332-.72 1.332-.719 3.632 0 .788.09 1.544.12.758.389 1.362.27.606.719.969.48.363 1.199.363 1.288 0 2.157-1.271.869-1.272.869-3.996 0-.756-.12-1.453a4 4 0 0 0-.36-1.271 2.27 2.27 0 0 0-.749-.878q-.479-.333-1.228-.333m16.189 13.228q-1.32 0-2.637-.333a6.3 6.3 0 0 1-2.337-1.15q-1.019-.817-1.678-2.18-.659-1.362-.659-3.42 0-.757.12-1.816.119-1.06.45-2.18.358-1.12.958-2.21a7.7 7.7 0 0 1 1.618-1.997q.989-.879 2.397-1.423 1.408-.545 3.356-.545 1.557 0 2.637.363 1.078.363 1.737 1 .659.604.959 1.422.3.817.3 1.756 0 1.392-.57 2.36a5.1 5.1 0 0 1-1.438 1.635 7.1 7.1 0 0 1-1.947 1q-1.08.362-2.127.574-1.05.182-1.948.242-.87.03-1.348.03 0 .576.15 1.151.178.544.509.969.329.423.869.696.538.272 1.318.272.778 0 1.199-.242.449-.272.719-.575.269-.333.449-.575a.65.65 0 0 1 .539-.273q.15 0 .51.091.389.06.779.303.389.241.689.666.299.424.299 1.09 0 .878-.539 1.513-.539.636-1.408 1.03a7.4 7.4 0 0 1-1.888.575q-1.049.18-2.037.181m.569-13.228q-.66 0-1.138.393-.45.364-.779.939-.3.575-.48 1.271-.15.696-.239 1.332 1.856-.03 2.996-.636 1.168-.604 1.168-1.725 0-.606-.389-1.09-.36-.484-1.139-.484"/></svg>