<svg viewBox="0 0 168 40" fill="none" xmlns="http://www.w3.org/2000/svg">
<path d="M2.13965 30.2497C57.2601 36.5976 178.548 44.8155 158.919 21.0605" stroke="var(--logo-color-sub, #D1E5F2)" stroke-width="4" stroke-linecap="round"/>
<path d="M156.273 4.86523C157.242 2.17836 160.182 0.792836 162.842 1.77051C165.501 2.74876 166.874 5.72014 165.906 8.40723C165.437 9.71075 164.501 10.7066 163.36 11.2764L158.243 14.1689L156.386 8.69141C155.884 7.51967 155.807 6.15965 156.273 4.86523ZM161.979 4.2168C160.645 3.72628 159.169 4.42128 158.684 5.76953C158.198 7.11786 158.886 8.60882 160.221 9.09961C161.555 9.59035 163.031 8.89512 163.517 7.54688C164.002 6.19851 163.314 4.70756 161.979 4.2168Z" fill="var(--logo-color-sub, #D1E5F2)"/>
<path d="M11.7111 24.6051C10.5326 24.6051 9.5638 24.5243 8.80477 24.3629C8.04574 24.2216 7.43651 24.0097 6.9771 23.7272C6.53766 23.4245 6.22806 23.0511 6.04829 22.6072C5.8885 22.1632 5.80859 21.6386 5.80859 21.0332C5.80859 20.8516 5.81858 20.5992 5.83856 20.2764C5.85853 19.9333 5.8885 19.4591 5.92844 18.8537C5.96839 18.2483 6.01833 17.4713 6.07825 16.5229C6.15815 15.5543 6.25802 14.3435 6.37787 12.8905C6.51769 11.0944 6.62755 9.67171 6.70745 8.62234C6.78735 7.57297 6.84727 6.76576 6.88722 6.20072C6.92716 5.61549 6.94714 5.21189 6.94714 4.98991C6.96712 4.74775 6.9771 4.54594 6.9771 4.38451C6.9771 4.06162 6.9771 3.79927 6.9771 3.59748C6.99708 3.39567 7.01705 3.24432 7.03703 3.14342C7.07697 3.02234 7.12691 2.94162 7.18684 2.90126C7.26674 2.84072 7.37659 2.81045 7.51642 2.81045C8.69491 2.72973 9.69364 2.66919 10.5126 2.62883C11.3515 2.58846 12.0806 2.56829 12.6998 2.56829C14.2179 2.56829 15.5162 2.69946 16.5948 2.9618C17.6935 3.20397 18.5823 3.55711 19.2614 4.02126C19.9406 4.4854 20.4399 5.06054 20.7595 5.74667C21.0792 6.43279 21.2389 7.20973 21.2389 8.07748C21.2389 8.5618 21.1889 9.0663 21.0891 9.59099C20.9893 10.0955 20.8194 10.5798 20.5798 11.044C20.3401 11.5081 20.0105 11.9218 19.591 12.2851C19.1916 12.6281 18.6822 12.8803 18.063 13.0418C19.2215 13.4051 20.0404 14.0105 20.5198 14.8581C20.9992 15.6854 21.2389 16.6743 21.2389 17.8245C21.2389 18.7528 21.0891 19.6306 20.7895 20.4581C20.4899 21.2652 19.9706 21.9816 19.2315 22.6072C18.4924 23.2126 17.5137 23.697 16.2952 24.0602C15.0767 24.4235 13.5487 24.6051 11.7111 24.6051ZM13.4189 15.2213C13.1992 15.2213 12.9295 15.2414 12.6099 15.2818C12.2903 15.3019 11.9607 15.3424 11.6212 15.4029L11.2916 20.337C12.0107 20.5589 12.6599 20.6699 13.2391 20.6699C13.8584 20.6699 14.3577 20.5791 14.7372 20.3975C15.1168 20.2159 15.4063 19.9938 15.6061 19.7316C15.8258 19.449 15.9656 19.1463 16.0256 18.8235C16.1055 18.4803 16.1454 18.1676 16.1454 17.8851C16.1454 17.1384 15.9357 16.5128 15.5162 16.0083C15.1168 15.4836 14.4176 15.2213 13.4189 15.2213ZM12.1605 6.89694C12.1206 7.42162 12.0806 8.03711 12.0406 8.74343C12.0206 9.44973 11.9807 10.2166 11.9208 11.044C12.5599 11.2054 13.1292 11.2862 13.6286 11.2862C14.2279 11.2862 14.7072 11.2155 15.0668 11.0743C15.4263 10.933 15.7059 10.7513 15.9057 10.5294C16.1254 10.3074 16.2653 10.0652 16.3252 9.80289C16.4051 9.54054 16.445 9.28829 16.445 9.04613C16.445 8.42054 16.2353 7.88576 15.8158 7.4418C15.4164 6.97765 14.7172 6.74559 13.7185 6.74559C13.4988 6.74559 13.2491 6.76576 12.9695 6.80613C12.7098 6.8263 12.4401 6.85657 12.1605 6.89694ZM29.4625 24.6051C28.0842 24.6051 26.9357 24.4133 26.0169 24.0299C25.118 23.6263 24.3989 23.0814 23.8596 22.3953C23.3203 21.7092 22.9409 20.9121 22.7211 20.004C22.5014 19.0757 22.3915 18.0868 22.3915 17.0375C22.3915 15.8267 22.5313 14.6462 22.8109 13.4959C23.1106 12.3254 23.61 11.2862 24.309 10.378C25.0082 9.46991 25.927 8.74343 27.0655 8.19856C28.2241 7.63351 29.6622 7.35099 31.38 7.35099C33.8968 7.35099 35.6945 7.97658 36.7731 9.22775C37.8718 10.4587 38.421 12.1943 38.421 14.4343C38.421 15.0598 38.3712 15.756 38.2712 16.5229C38.1914 17.2695 38.0216 18.0162 37.7619 18.7629C37.5222 19.5095 37.1826 20.236 36.7432 20.9424C36.3237 21.6486 35.7844 22.2743 35.1252 22.8191C34.4661 23.364 33.6672 23.7978 32.7283 24.1208C31.8095 24.4436 30.7209 24.6051 29.4625 24.6051ZM30.8707 11.377C30.1117 11.377 29.5025 11.5787 29.043 11.9824C28.6036 12.3657 28.264 12.84 28.0243 13.4051C27.8046 13.9499 27.6548 14.5351 27.5749 15.1608C27.5149 15.7662 27.485 16.2808 27.485 16.7045C27.485 18.0364 27.6947 19.0151 28.1142 19.6408C28.5336 20.2663 29.1329 20.5791 29.9119 20.5791C30.6111 20.5791 31.1803 20.3571 31.6197 19.9132C32.0792 19.4692 32.4287 18.9344 32.6684 18.3089C32.9281 17.6832 33.0979 17.0274 33.1777 16.3413C33.2777 15.6551 33.3275 15.08 33.3275 14.6159C33.3275 13.6068 33.1378 12.8198 32.7583 12.2548C32.3987 11.6695 31.7695 11.377 30.8707 11.377ZM46.4705 24.6051C45.0922 24.6051 43.9437 24.4133 43.0249 24.0299C42.126 23.6263 41.4069 23.0814 40.8676 22.3953C40.3283 21.7092 39.9488 20.9121 39.7291 20.004C39.5094 19.0757 39.3995 18.0868 39.3995 17.0375C39.3995 15.8267 39.5394 14.6462 39.819 13.4959C40.1186 12.3254 40.618 11.2862 41.3171 10.378C42.0161 9.46991 42.935 8.74343 44.0735 8.19856C45.2321 7.63351 46.6703 7.35099 48.388 7.35099C50.9048 7.35099 52.7025 7.97658 53.7812 9.22775C54.8798 10.4587 55.4291 12.1943 55.4291 14.4343C55.4291 15.0598 55.3791 15.756 55.2792 16.5229C55.1993 17.2695 55.0296 18.0162 54.7699 18.7629C54.5302 19.5095 54.1907 20.236 53.7512 20.9424C53.3317 21.6486 52.7924 22.2743 52.1333 22.8191C51.4741 23.364 50.6751 23.7978 49.7363 24.1208C48.8174 24.4436 47.7289 24.6051 46.4705 24.6051ZM47.8787 11.377C47.1197 11.377 46.5104 11.5787 46.051 11.9824C45.6115 12.3657 45.272 12.84 45.0323 13.4051C44.8126 13.9499 44.6628 14.5351 44.5829 15.1608C44.523 15.7662 44.493 16.2808 44.493 16.7045C44.493 18.0364 44.7027 19.0151 45.1222 19.6408C45.5417 20.2663 46.1409 20.5791 46.9199 20.5791C47.619 20.5791 48.1883 20.3571 48.6277 19.9132C49.0871 19.4692 49.4367 18.9344 49.6764 18.3089C49.9361 17.6832 50.1058 17.0274 50.1857 16.3413C50.2856 15.6551 50.3355 15.08 50.3355 14.6159C50.3355 13.6068 50.1458 12.8198 49.7663 12.2548C49.4067 11.6695 48.7775 11.377 47.8787 11.377ZM70.9989 21.8505C70.9989 21.9513 70.9489 22.1532 70.8491 22.4559C70.7492 22.7586 70.5894 23.0714 70.3697 23.3943C70.1499 23.7171 69.8703 23.9997 69.5308 24.2418C69.2111 24.484 68.8216 24.6051 68.3623 24.6051C67.823 24.6051 67.2836 24.4235 66.7443 24.0602C66.2249 23.697 65.7056 23.2025 65.1863 22.577C64.6669 21.9514 64.1377 21.2148 63.5983 20.3672C63.0789 19.4995 62.5497 18.5611 62.0104 17.5521C61.9304 18.6216 61.8505 19.671 61.7707 20.7002C61.6907 21.7294 61.6108 22.7283 61.531 23.697C61.511 23.9391 61.461 24.1005 61.3812 24.1813C61.3012 24.2619 61.1314 24.3024 60.8718 24.3024H59.7932C59.174 24.3024 58.6646 24.2418 58.2652 24.1208C57.8656 23.9795 57.556 23.7878 57.3363 23.5456C57.1165 23.3035 56.9568 23.0008 56.8569 22.6375C56.777 22.2541 56.7371 21.8202 56.7371 21.3359C56.7371 21.0937 56.747 20.8414 56.7671 20.5791C56.787 20.3168 56.8169 19.9435 56.8569 19.4591C56.8969 18.9748 56.9468 18.3391 57.0068 17.5521C57.0866 16.7651 57.1765 15.7257 57.2764 14.4343C57.3763 13.1427 57.4861 11.5586 57.606 9.6818C57.7457 7.78486 57.8955 5.48432 58.0554 2.78018C58.0753 2.33621 58.1253 2.07387 58.2052 1.99315C58.2652 1.93261 58.4249 1.90234 58.6846 1.90234H59.8531C60.4723 1.90234 60.9816 1.97297 61.3812 2.11424C61.7806 2.25549 62.1003 2.44721 62.34 2.68937C62.5796 2.93153 62.7394 3.21405 62.8193 3.53694C62.9192 3.85981 62.9692 4.19279 62.9692 4.53586C62.9692 4.73765 62.9491 5.08072 62.9092 5.56505C62.8892 6.02919 62.8592 6.60432 62.8193 7.29045C62.7793 7.9564 62.7194 8.71316 62.6396 9.56072C62.5796 10.4083 62.5197 11.2962 62.4598 12.2245L67.2537 7.80505C67.4335 7.6436 67.5932 7.53261 67.7331 7.47207C67.8928 7.41153 68.0127 7.38126 68.0926 7.38126C68.3123 7.38126 68.552 7.52252 68.8117 7.80505C69.0713 8.08757 69.311 8.42054 69.5308 8.80397C69.7705 9.16721 69.9602 9.55063 70.1001 9.95424C70.2598 10.3377 70.3398 10.6505 70.3398 10.8926C70.3398 11.4778 69.8703 12.0933 68.9315 12.7391C68.0127 13.3849 66.6144 14.1114 64.7369 14.9186C65.5758 15.867 66.3747 16.7348 67.1338 17.5218C67.8928 18.3089 68.552 19.0051 69.1113 19.6105C69.6905 20.2159 70.1499 20.7103 70.4896 21.0937C70.8291 21.4771 70.9989 21.7294 70.9989 21.8505ZM79.0005 7.35099C80.6984 7.35099 81.9468 7.69405 82.7457 8.38018C83.5448 9.04613 83.9442 9.90378 83.9442 10.9532C83.9442 11.8411 83.6646 12.5171 83.1053 12.9813C82.566 13.4454 81.777 13.6775 80.7383 13.6775C80.4587 13.6775 80.269 13.6472 80.169 13.5867C80.0692 13.5262 80.0192 13.4151 80.0192 13.2537C80.0192 13.0721 79.9993 12.8703 79.9593 12.6483C79.9394 12.4062 79.8694 12.1841 79.7496 11.9824C79.6497 11.7603 79.4799 11.5787 79.2402 11.4375C79.0205 11.2962 78.7009 11.2256 78.2814 11.2256C77.7222 11.2256 77.2728 11.3668 76.9332 11.6494C76.5936 11.9117 76.4238 12.2446 76.4238 12.6483C76.4238 13.0721 76.5936 13.4151 76.9332 13.6775C77.2927 13.9197 77.7322 14.1517 78.2515 14.3737C78.7908 14.5957 79.3701 14.8278 79.9893 15.0699C80.6085 15.2919 81.1778 15.5946 81.6971 15.9781C82.2364 16.3614 82.6759 16.8457 83.0154 17.431C83.3749 17.996 83.5547 18.7326 83.5547 19.6408C83.5547 21.0937 83.0454 22.2843 82.0267 23.2126C81.008 24.1409 79.4799 24.6051 77.4425 24.6051C76.8833 24.6051 76.2341 24.5546 75.495 24.4537C74.7759 24.373 74.0868 24.2418 73.4276 24.0602C72.7685 23.8584 72.2093 23.596 71.7498 23.2732C71.3104 22.9503 71.0906 22.5467 71.0906 22.0624C71.0906 21.8808 71.1206 21.6587 71.1805 21.3964C71.2604 21.1341 71.3703 20.8818 71.5101 20.6397C71.6699 20.3975 71.8497 20.1957 72.0494 20.0343C72.2692 19.8526 72.5288 19.7618 72.8284 19.7618C73.0681 19.7618 73.2879 19.8224 73.4875 19.9435C73.6873 20.0645 73.9171 20.1957 74.1767 20.337C74.4564 20.4581 74.7959 20.5791 75.1954 20.7002C75.5949 20.8213 76.1242 20.8818 76.7833 20.8818C77.2827 20.8818 77.7222 20.8213 78.1017 20.7002C78.5012 20.5791 78.7009 20.3067 78.7009 19.8829C78.7009 19.4995 78.5411 19.1968 78.2215 18.9748C77.902 18.7326 77.4925 18.5106 76.9931 18.3089C76.5137 18.107 75.9844 17.8951 75.4051 17.6732C74.8459 17.431 74.3165 17.1182 73.8171 16.7348C73.3377 16.3513 72.9383 15.867 72.6187 15.2818C72.2991 14.6764 72.1393 13.8995 72.1393 12.951C72.1393 11.9218 72.3391 11.0541 72.7385 10.3477C73.158 9.62126 73.6873 9.03603 74.3265 8.59207C74.9856 8.14811 75.7247 7.83532 76.5437 7.6537C77.3627 7.45189 78.1816 7.35099 79.0005 7.35099ZM92.7448 20.5791C93.3241 20.5791 93.8235 20.4984 94.2429 20.337C94.6823 20.1755 95.0619 19.9938 95.3815 19.7921C95.701 19.5903 95.9707 19.4086 96.1905 19.2472C96.4101 19.0857 96.6099 19.0051 96.7897 19.0051C97.2491 19.0051 97.4788 19.3078 97.4788 19.9132C97.4788 20.0544 97.4488 20.2562 97.3889 20.5186C97.329 20.7608 97.2491 21.023 97.1492 21.3056C97.0493 21.5679 96.9395 21.8202 96.8197 22.0624C96.7197 22.3045 96.6199 22.4862 96.52 22.6072C96.4201 22.7081 96.2403 22.8695 95.9807 23.0916C95.741 23.3135 95.4115 23.5355 94.992 23.7575C94.5725 23.9795 94.0831 24.1711 93.5239 24.3326C92.9645 24.5143 92.3453 24.6051 91.6662 24.6051C90.9071 24.6051 90.1182 24.4941 89.2992 24.2721C88.5002 24.0299 87.7712 23.6263 87.112 23.0613C86.4529 22.476 85.9035 21.6991 85.4641 20.7305C85.0447 19.7416 84.8349 18.5106 84.8349 17.0375C84.8349 16.5128 84.8649 15.9175 84.9248 15.2516C85.0046 14.5654 85.1545 13.8692 85.3742 13.1629C85.5939 12.4364 85.8836 11.7301 86.2431 11.044C86.6226 10.3377 87.122 9.71207 87.7412 9.16721C88.3604 8.62234 89.0995 8.18846 89.9584 7.86559C90.8372 7.52252 91.876 7.35099 93.0744 7.35099C94.0531 7.35099 94.892 7.47207 95.5912 7.71424C96.3103 7.93621 96.8995 8.24901 97.359 8.65261C97.8183 9.03603 98.1579 9.49009 98.3777 10.0148C98.6174 10.5395 98.7372 11.1045 98.7372 11.7099C98.7372 12.7997 98.3976 13.6068 97.7185 14.1316C97.0393 14.636 96.0806 14.8883 94.8422 14.8883C94.5426 14.8883 94.3328 14.8681 94.213 14.8278C94.113 14.7672 94.0632 14.6462 94.0632 14.4645C94.0632 13.9802 94.0531 13.5463 94.0332 13.1629C94.0132 12.7795 93.9533 12.4565 93.8534 12.1943C93.7735 11.9319 93.6437 11.7301 93.4639 11.5889C93.2842 11.4476 93.0245 11.377 92.6849 11.377C92.0657 11.377 91.5663 11.5787 91.1868 11.9824C90.8273 12.3859 90.5476 12.8803 90.3479 13.4656C90.1681 14.0306 90.0483 14.6159 89.9884 15.2213C89.9483 15.8267 89.9284 16.3311 89.9284 16.7348C89.9284 18.1676 90.1481 19.1665 90.5876 19.7316C91.047 20.2965 91.7661 20.5791 92.7448 20.5791ZM98.6117 20.5791C98.6117 18.7629 99.4207 17.3402 101.039 16.311C102.657 15.2818 105.044 14.7268 108.2 14.6462C108.219 14.4241 108.23 14.2425 108.23 14.1013C108.249 13.9398 108.26 13.7481 108.26 13.5262C108.26 12.8803 108.14 12.3657 107.9 11.9824C107.66 11.5989 107.161 11.4072 106.402 11.4072C105.982 11.4072 105.643 11.4678 105.383 11.5889C105.123 11.7099 104.914 11.8814 104.754 12.1035C104.594 12.3052 104.464 12.5575 104.364 12.8602C104.265 13.1629 104.175 13.4959 104.095 13.8591C104.055 14.0408 103.965 14.1618 103.825 14.2224C103.685 14.2627 103.465 14.2829 103.166 14.2829C101.128 14.2829 100.11 13.5059 100.11 11.9521C100.11 11.3265 100.25 10.7312 100.529 10.1661C100.829 9.60108 101.258 9.11675 101.818 8.71315C102.397 8.28937 103.116 7.9564 103.975 7.71424C104.834 7.47207 105.832 7.35099 106.971 7.35099C109.189 7.35099 110.796 7.81513 111.795 8.74343C112.794 9.67171 113.293 10.9835 113.293 12.6786C113.293 12.9005 113.263 13.3041 113.203 13.8894C113.163 14.4544 113.103 15.0598 113.024 15.7056C112.964 16.3311 112.904 16.9265 112.844 17.4916C112.803 18.0565 112.784 18.4501 112.784 18.6721C112.784 19.1765 112.874 19.5398 113.054 19.7618C113.233 19.9636 113.432 20.1049 113.653 20.1856C113.893 20.2663 114.102 20.3268 114.282 20.3672C114.462 20.4076 114.552 20.5084 114.552 20.6699C114.552 21.1138 114.492 21.5679 114.372 22.0321C114.252 22.4962 114.052 22.92 113.773 23.3035C113.513 23.6868 113.143 23.9997 112.664 24.2418C112.204 24.484 111.635 24.6051 110.956 24.6051C109.997 24.6051 109.278 24.373 108.799 23.9089C108.32 23.4446 108 22.7989 107.84 21.9716C107.361 22.6778 106.731 23.2933 105.952 23.8181C105.193 24.3427 104.195 24.6051 102.956 24.6051C102.357 24.6051 101.788 24.5344 101.248 24.3932C100.729 24.2519 100.27 24.0198 99.8701 23.697C99.4906 23.3741 99.181 22.9603 98.9413 22.4559C98.7216 21.9311 98.6117 21.3056 98.6117 20.5791ZM107.93 17.1283C107.41 17.1283 106.901 17.1686 106.402 17.2494C105.902 17.3301 105.453 17.4613 105.053 17.6429C104.674 17.8043 104.364 18.0263 104.125 18.3089C103.885 18.5914 103.765 18.9344 103.765 19.3381C103.765 19.8022 103.905 20.1251 104.185 20.3067C104.484 20.4883 104.804 20.5791 105.143 20.5791C105.463 20.5791 105.783 20.5084 106.102 20.3672C106.422 20.2259 106.701 20.0141 106.941 19.7316C107.2 19.4289 107.421 19.0656 107.601 18.6418C107.78 18.2181 107.889 17.7135 107.93 17.1283ZM125.861 7.35099C127.739 7.35099 129.147 7.93621 130.086 9.10667C131.045 10.2771 131.524 12.1236 131.524 14.6462C131.524 16.2202 131.344 17.6227 130.985 18.8537C130.625 20.0846 130.125 21.1341 129.487 22.0018C128.848 22.8494 128.099 23.4951 127.239 23.9391C126.38 24.383 125.451 24.6051 124.453 24.6051C123.395 24.6051 122.565 24.373 121.966 23.9089C121.367 23.4446 120.897 22.7889 120.558 21.9413C120.498 22.6678 120.448 23.2227 120.408 23.6062C120.369 23.9895 120.339 24.2922 120.318 24.5143C120.298 24.7564 120.279 24.9683 120.258 25.1499C120.258 25.3316 120.238 25.5737 120.198 25.8764C120.178 26.1791 120.148 26.5928 120.109 27.1175C120.069 27.6422 120.009 28.3686 119.929 29.297C119.908 29.5391 119.859 29.7005 119.779 29.7813C119.699 29.8619 119.53 29.9024 119.27 29.9024H118.191C117.571 29.9024 117.062 29.8317 116.663 29.6905C116.283 29.5694 115.974 29.3878 115.734 29.1456C115.515 28.9035 115.354 28.6008 115.255 28.2375C115.174 27.8944 115.135 27.4908 115.135 27.0267C115.135 26.8249 115.165 26.28 115.225 25.3921C115.285 24.5041 115.354 23.4446 115.434 22.2137C115.534 20.9625 115.635 19.6205 115.734 18.1878C115.854 16.7549 115.964 15.3928 116.064 14.1013C116.163 12.7895 116.243 11.6292 116.303 10.6202C116.384 9.61117 116.444 8.91495 116.483 8.53153C116.503 8.08757 116.553 7.82522 116.633 7.74451C116.693 7.68397 116.852 7.6537 117.112 7.6537H118.281C119.359 7.6537 120.138 7.88577 120.618 8.34991C121.118 8.79388 121.367 9.32865 121.367 9.95424C121.826 9.02595 122.416 8.36 123.135 7.9564C123.874 7.5528 124.783 7.35099 125.861 7.35099ZM123.674 11.377C122.655 11.377 121.906 11.8209 121.427 12.7089C120.947 13.5968 120.708 14.8076 120.708 16.3413C120.708 16.8659 120.738 17.3805 120.798 17.8851C120.878 18.3895 121.007 18.8436 121.187 19.2472C121.367 19.6508 121.607 19.9737 121.906 20.2159C122.226 20.4581 122.625 20.5791 123.105 20.5791C123.964 20.5791 124.683 20.1554 125.262 19.3078C125.841 18.4602 126.131 17.1283 126.131 15.3121C126.131 14.8076 126.091 14.3232 126.011 13.8591C125.951 13.3748 125.831 12.951 125.651 12.5878C125.472 12.2245 125.222 11.9319 124.902 11.7099C124.582 11.4879 124.174 11.377 123.674 11.377ZM139.863 24.6051C138.983 24.6051 138.105 24.4941 137.226 24.2721C136.367 24.0501 135.588 23.6667 134.889 23.1218C134.21 22.577 133.65 21.8505 133.211 20.9424C132.772 20.0343 132.552 18.8941 132.552 17.5218C132.552 17.0173 132.592 16.4119 132.672 15.7056C132.751 14.9992 132.901 14.2728 133.122 13.5262C133.361 12.7795 133.68 12.0429 134.08 11.3164C134.5 10.5697 135.039 9.90378 135.698 9.31856C136.357 8.73333 137.156 8.2591 138.095 7.89586C139.034 7.53261 140.152 7.35099 141.451 7.35099C142.489 7.35099 143.368 7.47207 144.088 7.71424C144.807 7.9564 145.386 8.28937 145.825 8.71315C146.264 9.11675 146.584 9.59099 146.784 10.1359C146.983 10.6807 147.084 11.2659 147.084 11.8916C147.084 12.8198 146.893 13.6068 146.514 14.2526C146.155 14.8984 145.676 15.4432 145.076 15.8872C144.496 16.311 143.848 16.644 143.129 16.8862C142.41 17.1283 141.7 17.32 141.002 17.4613C140.302 17.5824 139.653 17.663 139.054 17.7035C138.474 17.7236 138.025 17.7337 137.706 17.7337C137.706 18.1171 137.755 18.5005 137.856 18.884C137.975 19.2472 138.144 19.5701 138.365 19.8526C138.584 20.1351 138.874 20.3672 139.234 20.5489C139.593 20.7305 140.032 20.8213 140.552 20.8213C141.071 20.8213 141.47 20.7405 141.751 20.5791C142.05 20.3975 142.29 20.2057 142.47 20.004C142.649 19.7819 142.799 19.5903 142.919 19.4289C143.058 19.2472 143.238 19.1564 143.458 19.1564C143.558 19.1564 143.728 19.1867 143.968 19.2472C144.227 19.2876 144.487 19.3884 144.747 19.5499C145.006 19.7113 145.236 19.9333 145.436 20.2159C145.635 20.4984 145.735 20.8616 145.735 21.3056C145.735 21.8908 145.556 22.3954 145.196 22.8191C144.837 23.2429 144.367 23.5859 143.788 23.8483C143.228 24.1106 142.599 24.3024 141.9 24.4235C141.201 24.5445 140.522 24.6051 139.863 24.6051ZM140.432 11.377C139.992 11.377 139.613 11.5081 139.294 11.7705C138.994 12.0126 138.734 12.3254 138.515 12.7089C138.315 13.0922 138.155 13.516 138.035 13.9802C137.935 14.4443 137.856 14.8883 137.796 15.3121C139.034 15.2919 140.032 15.08 140.792 14.6764C141.571 14.2728 141.96 13.6976 141.96 12.951C141.96 12.5473 141.83 12.1841 141.571 11.8613C141.331 11.5384 140.951 11.377 140.432 11.377Z" fill="var(--logo-color-main, #6AABD5)"/>
</svg>
