<svg width="182" height="182" viewBox="0 0 182 182" fill="none" xmlns="http://www.w3.org/2000/svg">
<mask id="mask0_63_16658" style="mask-type:alpha" maskUnits="userSpaceOnUse" x="30" y="30" width="122" height="122">
<path d="M152 91C152 124.689 124.689 152 91 152C57.3106 152 30 124.689 30 91C30 57.3106 57.3106 30 91 30C124.689 30 152 57.3106 152 91Z" fill="#70ACDE"/>
</mask>
<g mask="url(#mask0_63_16658)">
<circle cx="90.8693" cy="91.1441" r="61.0001" fill="#CDE7FF"/>
<circle cx="90.8693" cy="91.1441" r="61.0001" fill="url(#paint0_linear_63_16658)" fill-opacity="0.1"/>
<path d="M29.2081 35.8996C45.0214 22.0856 67.5351 21.9846 79.4937 35.674C88.3514 45.8137 88.9332 60.6751 82.2133 73.3143C82.093 73.5406 82.128 73.8186 82.2966 74.0116C88.2014 80.7711 86.6584 91.7803 78.8502 98.6013C71.042 105.422 59.9254 105.472 54.0206 98.7128C52.4731 96.9414 50.2514 95.6989 47.9033 95.8367C38.0839 96.4128 28.6394 93.0378 22.2284 85.699C10.2699 72.0096 13.3948 49.7137 29.2081 35.8996Z" fill="#DAF5EB"/>
<path d="M119.317 46.5418C126.363 45.0258 133.139 48.7416 134.452 54.8413C135.764 60.941 131.116 67.1147 124.07 68.6308C123.01 68.8588 121.957 68.9684 120.927 68.9694C118.618 68.9717 116.283 69.5054 114.091 70.2305C110.786 71.3235 107.248 70.633 105.08 68.1511C102.053 64.6864 102.844 59.0433 106.846 55.5471C107.018 55.3972 107.192 55.2538 107.37 55.1167C108.797 54.0144 110.141 52.7517 111.278 51.3524C113.161 49.0353 115.968 47.2624 119.317 46.5418Z" fill="#DAF5EB"/>
<path d="M107.695 95.6369C116.122 93.8236 124.444 99.2799 126.283 107.824C126.284 107.829 126.287 107.834 126.292 107.837C129.449 109.712 131.78 112.679 132.566 116.33C133.775 121.952 130.978 127.601 125.954 130.843C125.93 130.859 125.933 130.895 125.959 130.907C125.986 130.918 126.002 130.947 125.977 130.962C124.736 131.697 98.6375 146.923 84.172 135.143C81.5578 133.266 79.6547 130.573 78.96 127.344C77.3456 119.841 82.8687 112.288 91.2962 110.475C91.3138 110.471 91.3314 110.467 91.3489 110.464C93.5874 109.989 95.4778 108.237 96.1905 106.063C97.8687 100.942 102.102 96.8402 107.695 95.6369Z" fill="#DAF5EB"/>
<path d="M75.115 69.0516C75.115 70.7478 73.74 72.1228 72.0438 72.1228C70.3477 72.1228 68.9727 70.7478 68.9727 69.0516C68.9727 67.3555 70.3477 65.9805 72.0438 65.9805C73.74 65.9805 75.115 67.3555 75.115 69.0516Z" fill="#9297A3"/>
<path d="M95.658 69.0516C95.658 70.7478 94.283 72.1228 92.5868 72.1228C90.8906 72.1228 89.5156 70.7478 89.5156 69.0516C89.5156 67.3555 90.8906 65.9805 92.5868 65.9805C94.283 65.9805 95.658 67.3555 95.658 69.0516Z" fill="#9297A3"/>
<path d="M87.908 81.8804C88.9651 82.397 90.2529 81.9991 90.8288 80.9579C91.4048 79.9168 91.0575 78.6144 90.0582 77.9935L89.9593 77.9356C82.9314 74.048 76.1799 76.184 73.3929 77.9368L73.2633 78.02L73.1689 78.0851C72.218 78.7779 71.9675 80.1025 72.6185 81.0984C73.2696 82.0943 74.5836 82.3964 75.5997 81.8033L75.6969 81.7431L75.7791 81.6906C77.5539 80.5788 82.547 78.9182 87.8065 81.8275L87.908 81.8804Z" fill="#9297A3"/>
<path d="M101.022 77.1449C99.4327 76.3173 98.6339 74.4762 97.9555 72.1453C97.8633 71.8284 98.1028 71.5127 98.4326 71.5227C99.9888 71.5698 103.356 71.8689 104.267 73.7663C105.349 76.0187 103.186 78.2711 101.022 77.1449Z" fill="#94BDF6"/>
</g>
<defs>
<linearGradient id="paint0_linear_63_16658" x1="81.49" y1="58.6712" x2="126.998" y2="138.14" gradientUnits="userSpaceOnUse">
<stop stop-color="white"/>
<stop offset="1" stop-color="#2887D7"/>
</linearGradient>
</defs>
</svg>
