<svg xmlns="http://www.w3.org/2000/svg" fill="none" viewBox="0 0 88 88"><mask id="a" width="62" height="62" x="5" y="13" maskUnits="userSpaceOnUse" style="mask-type:alpha"><path fill="#70acde" d="M66.213 44.001c0 16.687-13.527 30.214-30.214 30.214S5.785 60.688 5.785 44.001 19.312 13.787 36 13.787s30.214 13.527 30.214 30.214"/></mask><g mask="url(#a)"><circle cx="35.925" cy="44.17" r="34.532" fill="#ff8f8f"/><ellipse cx="30.882" cy="39.454" fill="#fff" rx="2.036" ry="5.663"/><path fill="#1f1f22" d="M32.847 39.863c0-1.755-.392-3.24-.922-4.211-.264-.483-.526-.775-.724-.928-.184-.143-.274-.14-.282-.14-.01 0-.099-.004-.283.14-.198.153-.46.445-.724.928-.53.971-.922 2.456-.922 4.21s.392 3.24.922 4.211c.264.483.526.775.724.928.184.144.274.14.283.14v2.094l-.208-.01c-2.056-.191-3.705-3.214-3.81-6.983l-.005-.38c0-4.071 1.801-7.372 4.023-7.372 2.22 0 4.021 3.3 4.021 7.372l-.005.38c-.108 3.895-1.865 6.993-4.017 6.993v-2.093c.01 0 .098.002.283-.14.198-.154.46-.446.724-.929.53-.971.922-2.456.922-4.21m-5.784-8.744a1.715 1.715 0 1 1-3.43 0 1.715 1.715 0 0 1 3.43 0m11.471 0a1.715 1.715 0 1 1-3.43 0 1.715 1.715 0 0 1 3.43 0"/></g><path fill="#1f1f22" d="m80.023 21.598-5.006-.53a2.35 2.35 0 0 0-1.427.28c-.947.553-.769 1.913-.82 3.01l-.755 16.356c-.05 1.096-.117 2.34.719 3.05.988.841 2.667 1.052 3.852.49 1.02-.485 1.286-1.737 1.523-2.84l3.354-15.57c.28-1.296 1.026-2.925-.019-3.742-.318-.25-.78-.436-1.421-.504m-2.876 30.075a3.111 3.111 0 1 1-6.209-.405 3.111 3.111 0 0 1 6.209.405"/></svg>